<?xml version="1.0" encoding="utf-8"?>
<!-- Generator: Adobe Illustrator 27.5.0, SVG Export Plug-In . SVG Version: 6.00 Build 0)  -->
<svg version="1.1" xmlns="http://www.w3.org/2000/svg" xmlns:xlink="http://www.w3.org/1999/xlink" x="0px" y="0px"
	 viewBox="0 0 500 500" style="enable-background:new 0 0 500 500;" xml:space="preserve">
<g id="BACKGROUND">
	<rect style="fill:#F4E6D0;" width="500" height="500"/>
</g>
<g id="OBJECTS">
	<g>
		<g>
			<path style="fill:#FFFFFF;stroke:#000000;stroke-width:0.5;stroke-miterlimit:10;" d="M94.529,271.721
				c1.495,2.596,2.991,5.191,4.486,7.787c2.08,0.621,4.276,1.232,6.357,1.852c0.043-0.953-0.187-2.044-0.704-2.845
				c-0.738-1.143-2.163-1.592-3.474-1.96c-1.741-3.664-3.571-7.294-5.312-10.959"/>
			<path style="fill:#FFFFFF;stroke:#000000;stroke-width:0.5;stroke-miterlimit:10;" d="M94.283,277.364
				c2.108,2.128,4.216,4.257,6.324,6.386c2.17,0.07,4.449,0.1,6.619,0.17c-0.201-0.932-0.701-1.929-1.406-2.572
				c-1.006-0.917-2.498-0.988-3.859-1.009c-2.618-3.099-5.313-6.143-7.931-9.242"/>
			<path style="fill:#FFFFFF;stroke:#000000;stroke-width:0.5;stroke-miterlimit:10;" d="M94.283,281.496
				c2.108,2.129,4.216,4.257,6.324,6.386c2.17,0.07,4.449,0.1,6.619,0.17c-0.201-0.933-0.701-1.929-1.406-2.572
				c-1.006-0.917-2.498-0.988-3.859-1.009c-2.618-3.099-5.313-6.143-7.931-9.242"/>
		</g>
		<g>
			<path style="fill:#FFFFFF;stroke:#000000;stroke-width:0.5;stroke-miterlimit:10;" d="M211.439,271.721
				c-1.495,2.596-2.991,5.191-4.486,7.787c-2.08,0.621-4.276,1.232-6.356,1.852c-0.044-0.953,0.186-2.044,0.704-2.845
				c0.738-1.143,2.163-1.592,3.474-1.96c1.742-3.664,3.571-7.294,5.313-10.959"/>
			<path style="fill:#FFFFFF;stroke:#000000;stroke-width:0.5;stroke-miterlimit:10;" d="M211.686,277.364
				c-2.108,2.128-4.216,4.257-6.324,6.386c-2.17,0.07-4.449,0.1-6.619,0.17c0.201-0.932,0.702-1.929,1.406-2.572
				c1.005-0.917,2.498-0.988,3.859-1.009c2.618-3.099,5.313-6.143,7.931-9.242"/>
			<path style="fill:#FFFFFF;stroke:#000000;stroke-width:0.5;stroke-miterlimit:10;" d="M211.686,281.496
				c-2.108,2.129-4.216,4.257-6.324,6.386c-2.17,0.07-4.449,0.1-6.619,0.17c0.201-0.933,0.702-1.929,1.406-2.572
				c1.005-0.917,2.498-0.988,3.859-1.009c2.618-3.099,5.313-6.143,7.931-9.242"/>
		</g>
		<path style="fill:#FFFFFF;stroke:#000000;stroke-width:0.5;stroke-miterlimit:10;" d="M214.752,185.302
			c-3.029-12.155-0.629-22.575-0.402-35.897c0.044-2.592-1.741-9.532-1.753-11.979c-0.072-14.598-1.663-26.078-10.977-27.92
			l-1.801-0.117c-1.004-0.444-2.924-0.958-3.996-1.169c-9.507-1.872-31.122-13.134-31.242-15.962
			c-0.35-8.234,0.073-16.944,0.332-25.167l-8.015,1.009v-0.132l-3.912,0.438l-3.912-0.438V68.1l-8.015-1.009
			c0.259,8.223,0.681,16.933,0.332,25.167c-0.12,2.828-21.735,14.09-31.242,15.962c-1.072,0.211-2.993,0.725-3.996,1.169
			l-1.801,0.117c-9.314,1.842-10.906,13.323-10.977,27.92c-0.012,2.447-1.797,9.388-1.753,11.979
			c0.227,13.322,2.627,23.742-0.402,35.897c-5.247,14.081-6.898,20.086-6.498,27.447c0.77,14.188,1.273,24.719,2.922,38.826
			c0.837,7.16,1.824,21.589,2.222,28.789c2.373,2.892,4.528,6.612,6.254,9.959c1.959,0.663,3.791,1.237,5.409,2.558
			c0.884-1.037,0.786-2.863-0.007-3.976c-0.793-1.112-2.019-1.79-3.202-2.431c-0.791-2.213-1.963-4.921-2.754-7.133
			c-1.407-3.937-0.014-8.569,0.327-12.752c1.562,3.664,2.805,6.874,3.717,10.766c0.576,2.458,0.21,5.421,1.978,7.168
			c0.327,0.323,0.704,0.624,1.15,0.7c0.446,0.076,0.966-0.146,1.104-0.591c0.056-0.18,0.045-0.375,0.034-0.564
			c-0.125-2.098-0.25-4.195-0.376-6.292c-0.153-2.555-0.46-5.727-0.58-8.284c-0.086-1.825,0.455-5.062-0.011-6.825
			c-0.618-2.339-1.188-7.132-3.628-9.943c-1.448-1.667-1.905-3.979-1.403-6.128c2.407-10.3,13.235-31.133,9.503-53.424
			c-0.161-0.961-0.01-3.326,0.351-6.561c0.216-1.935,3.459-6.816,3.937-9.237c2.819-14.27,3.557-27.088,3.411-34.797
			c2.052,9.714,10.976,41.532,7.858,49.992c-4.499,12.206-12.809,21.053-15.141,37.099h44.245h1.893h44.245
			c-2.332-16.046-10.642-24.893-15.141-37.099c-3.118-8.46,5.806-40.278,7.858-49.992c-0.146,7.709,0.592,20.526,3.411,34.797
			c0.478,2.421,3.721,7.302,3.937,9.237c0.361,3.236,0.512,5.601,0.351,6.561c-3.733,22.291,7.096,43.124,9.503,53.424
			c0.502,2.15,0.044,4.461-1.403,6.128c-2.441,2.811-3.01,7.605-3.628,9.943c-0.466,1.762,0.074,5-0.011,6.825
			c-0.12,2.557-0.428,5.729-0.58,8.284c-0.125,2.097-0.251,4.195-0.376,6.292c-0.011,0.189-0.022,0.383,0.034,0.564
			c0.138,0.445,0.658,0.667,1.104,0.591c0.445-0.076,0.823-0.378,1.15-0.7c1.768-1.746,1.402-4.71,1.977-7.168
			c0.911-3.892,2.154-7.102,3.717-10.766c0.341,4.183,1.734,8.815,0.327,12.752c-0.791,2.213-1.963,4.92-2.754,7.133
			c-1.184,0.641-2.409,1.319-3.202,2.431c-0.793,1.112-0.891,2.939-0.007,3.976c1.619-1.32,3.45-1.895,5.409-2.558
			c1.727-3.347,3.882-7.067,6.254-9.959c0.399-7.2,1.385-21.629,2.222-28.789c1.649-14.108,2.152-24.638,2.922-38.826
			C221.649,205.389,219.998,199.383,214.752,185.302z"/>
		<g>
			<path d="M153.214,216.403c-0.183-0.994-0.14-1.893-0.088-2.803c0.083-0.908,0.176-1.803,0.508-2.758
				c0.46,0.906,0.546,1.881,0.489,2.833C154.034,214.625,153.803,215.577,153.214,216.403z"/>
		</g>
		<g>
			<path d="M118.751,109.046c2.547-0.337,5.11-0.561,7.68-0.665c2.57-0.112,5.144-0.091,7.715-0.007
				c2.57,0.125,5.136,0.322,7.688,0.644c1.276,0.161,2.548,0.349,3.816,0.56c0.314,0.062,0.636,0.09,0.957,0.207
				c0.315,0.116,0.593,0.302,0.842,0.511c0.498,0.424,0.879,0.949,1.256,1.467c-0.408-0.493-0.823-0.992-1.332-1.371
				c-0.254-0.187-0.529-0.345-0.825-0.433c-0.289-0.087-0.615-0.097-0.934-0.139c-1.272-0.16-2.546-0.306-3.823-0.42
				c-2.551-0.242-5.106-0.441-7.666-0.527c-2.559-0.125-5.121-0.138-7.684-0.109C123.879,108.8,121.315,108.892,118.751,109.046z"/>
		</g>
		<g>
			<g>
				<g>
					<path style="fill:#FFFFFF;stroke:#000000;stroke-width:0.5;stroke-miterlimit:10;" d="M151.18,264.46
						c-0.831-2.969-33.538-24.645-43.388-27.597c-7.065,47.608,11.998,117.873,13.474,123.963
						c2.063,8.508,1.012,36.618,1.638,43.237c2.444,25.807,6.068,35.449,7.128,63.353c0.286,7.537-18.551,16.276-21.537,17.628
						c-1.559,0.706-3.813-0.255-4.321,1.347c-0.284,0.897,0.387,1.907,1.201,1.896l40.287-0.51c2.175-0.031,3.929-2.006,3.974-4.626
						c0.013-0.728-0.026-1.463-0.107-2.189c-0.261-2.349-1.188-3.661-1.853-5.926c-0.297-1.012-0.652-2.057-0.984-3.089
						c-0.353-1.096-0.453-2.265-0.298-3.383c0.282-2.038,0.401-5.045-0.656-6.884c-0.19-0.331-0.338-0.702-0.361-1.091
						c-1.346-22.741,6.533-38.943,5.939-64.088c-0.33-13.957-6.372-32.548-7.691-39.583
						C142.099,348.765,152.632,269.645,151.18,264.46z"/>
					<g>
						<g>
							<path d="M120.36,483.301c-1.312,0.267-2.632,0.479-3.952,0.683c-0.329,0.053-0.649,0.1-0.877,0.238
								c-0.226,0.135-0.333,0.377-0.326,0.658c0.017,0.579,0.379,1.14,0.818,1.583c0.857,0.923,2.161,1.443,3.42,1.282
								c1.281-0.154,2.42-0.939,3.531-1.661c-0.986,0.88-2.074,1.778-3.473,2.041c-1.399,0.26-2.859-0.316-3.839-1.317
								c-0.471-0.508-0.899-1.147-0.911-1.927c-0.014-0.382,0.189-0.834,0.559-1.03c0.356-0.204,0.724-0.215,1.051-0.247
								C117.691,483.48,119.022,483.363,120.36,483.301z"/>
						</g>
						<g>
							<path d="M115.623,483.877c-0.768,0.169-1.539,0.322-2.313,0.447l-1.16,0.196c-0.195,0.029-0.379,0.056-0.539,0.108
								c-0.147,0.034-0.314,0.173-0.327,0.197l-0.02,0.037l-0.008,0.011c-0.26,0.378-0.012,1.038,0.346,1.482
								c0.364,0.476,0.854,0.859,1.402,1.119c0.55,0.256,1.161,0.4,1.779,0.335c0.618-0.051,1.226-0.27,1.805-0.554
								c-0.512,0.388-1.105,0.71-1.767,0.832c-0.658,0.123-1.365,0.048-1.992-0.213c-0.629-0.256-1.196-0.674-1.618-1.218
								c-0.21-0.263-0.399-0.584-0.487-0.935c-0.091-0.341-0.111-0.778,0.153-1.132l-0.028,0.048
								c0.395-0.532,0.872-0.469,1.249-0.535l1.172-0.094C114.052,483.943,114.836,483.901,115.623,483.877z"/>
						</g>
						<g>
							<path d="M112.632,487.538c-0.419,0.3-0.917,0.543-1.462,0.592c-0.544,0.06-1.11-0.044-1.604-0.295
								c-0.487-0.236-0.94-0.612-1.247-1.077c-0.158-0.243-0.276-0.511-0.321-0.814c-0.015-0.307-0.047-0.647,0.384-0.943
								l-0.09,0.059l0.006-0.007l0.015-0.015l0.006-0.004c0.243-0.192,0.516-0.206,0.737-0.228l0.669-0.043
								c0.446-0.022,0.893-0.035,1.342-0.03c-0.433,0.116-0.869,0.214-1.306,0.302c-0.416,0.095-0.948,0.125-1.163,0.327l0.02-0.019
								l-0.006,0.007l-0.09,0.059c0.092-0.045-0.012,0.028-0.009,0.055c-0.021,0.035-0.033,0.076-0.044,0.118
								c-0.02,0.086-0.014,0.188,0.003,0.29c0.035,0.208,0.131,0.423,0.258,0.608c0.265,0.398,0.626,0.704,1.05,0.95
								c0.416,0.232,0.885,0.393,1.374,0.399C111.645,487.837,112.145,487.724,112.632,487.538z"/>
						</g>
						<g>
							<path d="M108.459,485.198l-0.005,0.008l-0.001,0.001c-0.663,0.185-1.332,0.316-2.002,0.439
								c-0.351,0.06-0.611,0.128-0.638,0.329c-0.055,0.202,0.051,0.518,0.222,0.747c0.345,0.506,0.894,0.875,1.5,1.032
								c0.609,0.164,1.278,0.011,1.908-0.256c-0.517,0.442-1.233,0.74-1.977,0.634c-0.733-0.089-1.411-0.514-1.842-1.126
								c-0.204-0.32-0.387-0.701-0.262-1.169c0.068-0.233,0.282-0.425,0.488-0.488c0.203-0.073,0.39-0.074,0.555-0.084
								c0.68-0.044,1.361-0.079,2.048-0.06l-0.001,0L108.459,485.198z"/>
						</g>
					</g>
				</g>
				<g>
					<path d="M125.187,365.816c1.767-1.479,3.458-3.01,5.013-4.681c1.568-1.658,2.988-3.443,4.353-5.3
						c-1.032,2.063-2.413,3.95-3.989,5.642C128.975,363.157,127.18,364.655,125.187,365.816z"/>
				</g>
			</g>
			<g>
				<path d="M140.339,465.149c0.465,0.892,0.897,1.752,1.407,2.578c0.495,0.834,1.055,1.617,1.628,2.444
					c-0.849-0.548-1.527-1.328-2.055-2.186C140.805,467.118,140.431,466.155,140.339,465.149z"/>
			</g>
		</g>
		<g>
			<g>
				<g>
					<path style="fill:#FFFFFF;stroke:#000000;stroke-width:0.5;stroke-miterlimit:10;" d="M155.068,264.46
						c0.831-2.969,33.538-24.645,43.388-27.597c7.065,47.608-11.998,117.873-13.474,123.963c-2.063,8.508-1.012,36.618-1.638,43.237
						c-2.444,25.807-6.068,35.449-7.128,63.353c-0.286,7.537,18.551,16.276,21.537,17.628c1.559,0.706,3.813-0.255,4.321,1.347
						c0.284,0.897-0.387,1.907-1.201,1.896l-40.287-0.51c-2.175-0.031-3.929-2.006-3.974-4.626
						c-0.012-0.728,0.026-1.463,0.107-2.189c0.261-2.349,1.188-3.661,1.853-5.926c0.297-1.012,0.652-2.057,0.984-3.089
						c0.353-1.096,0.453-2.265,0.298-3.383c-0.282-2.038-0.401-5.045,0.656-6.884c0.19-0.331,0.338-0.702,0.361-1.091
						c1.346-22.741-6.533-40.018-5.939-65.164c0.33-13.957,6.372-31.472,7.691-38.507
						C164.149,348.765,153.615,269.645,155.068,264.46z"/>
					<g>
						<g>
							<path d="M185.888,483.301c1.338,0.062,2.669,0.178,3.999,0.303c0.327,0.032,0.695,0.043,1.051,0.247
								c0.369,0.197,0.572,0.648,0.559,1.03c-0.012,0.78-0.44,1.419-0.911,1.927c-0.981,1.001-2.441,1.577-3.839,1.317
								c-1.4-0.263-2.487-1.161-3.473-2.041c1.112,0.722,2.251,1.507,3.531,1.661c1.259,0.161,2.564-0.359,3.42-1.282
								c0.438-0.443,0.801-1.004,0.818-1.583c0.007-0.282-0.099-0.524-0.326-0.658c-0.227-0.138-0.548-0.185-0.877-0.238
								C188.519,483.78,187.2,483.568,185.888,483.301z"/>
						</g>
						<g>
							<path d="M190.625,483.877c0.786,0.024,1.571,0.065,2.352,0.133l1.172,0.094c0.377,0.066,0.854,0.002,1.249,0.535
								l-0.028-0.048c0.264,0.354,0.243,0.791,0.153,1.132c-0.089,0.352-0.277,0.672-0.487,0.935
								c-0.422,0.544-0.99,0.963-1.618,1.218c-0.627,0.261-1.334,0.336-1.992,0.213c-0.662-0.122-1.255-0.444-1.767-0.832
								c0.58,0.284,1.187,0.503,1.805,0.554c0.618,0.065,1.229-0.079,1.779-0.335c0.549-0.26,1.038-0.643,1.402-1.119
								c0.358-0.444,0.606-1.104,0.346-1.482l-0.008-0.011l-0.02-0.037c-0.013-0.024-0.18-0.163-0.327-0.197
								c-0.16-0.053-0.344-0.079-0.539-0.108l-1.16-0.196C192.164,484.199,191.393,484.047,190.625,483.877z"/>
						</g>
						<g>
							<path d="M193.616,487.538c0.487,0.186,0.987,0.299,1.477,0.292c0.489-0.006,0.958-0.167,1.374-0.399
								c0.424-0.246,0.785-0.552,1.05-0.95c0.128-0.185,0.224-0.4,0.258-0.608c0.017-0.103,0.023-0.204,0.003-0.29
								c-0.011-0.042-0.023-0.083-0.044-0.118c0.003-0.027-0.101-0.099-0.009-0.055l-0.09-0.059l-0.006-0.007l0.02,0.019
								c-0.215-0.202-0.746-0.232-1.163-0.327c-0.437-0.089-0.873-0.186-1.306-0.302c0.449-0.006,0.896,0.008,1.342,0.03
								l0.669,0.043c0.22,0.022,0.494,0.036,0.737,0.228l0.006,0.004l0.015,0.015l0.006,0.007l-0.09-0.059
								c0.431,0.296,0.4,0.636,0.384,0.943c-0.045,0.303-0.163,0.571-0.321,0.814c-0.307,0.465-0.76,0.841-1.247,1.077
								c-0.494,0.251-1.06,0.355-1.604,0.295C194.533,488.081,194.035,487.838,193.616,487.538z"/>
						</g>
						<g>
							<path d="M197.789,485.198l0.007,0.006l-0.001,0c0.687-0.019,1.368,0.017,2.048,0.06c0.165,0.01,0.352,0.011,0.555,0.084
								c0.205,0.063,0.42,0.255,0.488,0.488c0.125,0.468-0.058,0.85-0.262,1.169c-0.431,0.612-1.109,1.037-1.842,1.126
								c-0.744,0.105-1.46-0.192-1.977-0.634c0.63,0.267,1.299,0.42,1.908,0.256c0.605-0.157,1.155-0.526,1.5-1.032
								c0.17-0.229,0.277-0.545,0.221-0.747c-0.027-0.202-0.287-0.269-0.638-0.329c-0.67-0.123-1.339-0.254-2.002-0.439
								l-0.001-0.001L197.789,485.198z"/>
						</g>
					</g>
				</g>
				<g>
					<path d="M181.061,365.816c-1.993-1.161-3.788-2.659-5.377-4.339c-1.576-1.692-2.957-3.578-3.989-5.642
						c1.365,1.856,2.785,3.641,4.353,5.3C177.603,362.806,179.294,364.337,181.061,365.816z"/>
				</g>
			</g>
			<g>
				<path d="M165.909,465.149c-0.092,1.006-0.466,1.969-0.979,2.836c-0.528,0.858-1.207,1.638-2.055,2.186
					c0.573-0.828,1.133-1.61,1.628-2.444C165.011,466.901,165.444,466.041,165.909,465.149z"/>
			</g>
		</g>
		<g>
			<path style="fill:#FFFFFF;" d="M117.788,139.66c-3.499,7.122-2.513,17.541,3.379,22.645c6.908,5.984,16.668,3.56,22.406-1.748"/>
			<path d="M117.788,139.66c-0.862,1.854-1.397,3.843-1.657,5.857c-0.273,2.013-0.274,4.061,0.001,6.067
				c0.54,3.98,2.177,7.967,5.263,10.585c1.517,1.318,3.318,2.304,5.25,2.858c1.933,0.562,3.98,0.679,5.986,0.465
				c2.009-0.219,3.98-0.794,5.825-1.638c1.852-0.833,3.588-1.942,5.117-3.297c-2.947,2.826-6.795,4.773-10.897,5.315
				c-2.046,0.278-4.157,0.151-6.156-0.408c-1.999-0.557-3.873-1.565-5.45-2.916c-3.181-2.75-4.847-6.854-5.32-10.916
				C115.28,147.546,115.916,143.306,117.788,139.66z"/>
		</g>
		<path style="fill:#FFFFFF;stroke:#000000;stroke-width:0.5;stroke-miterlimit:10;" d="M157.167,229.668h-8.095h-41.28v7.194
			l19.665,12.696c3.961,2.776,18.816,12.179,23.934,14.867c0.992,0.521,2.493,0.509,3.523-0.035
			c5.179-2.734,19.924-12.069,23.868-14.832l19.665-12.696v-7.194H157.167z"/>
		<g>
			<path d="M153.026,216.403c-0.589-0.827-0.82-1.778-0.908-2.728c-0.058-0.952,0.029-1.928,0.489-2.833
				c0.332,0.956,0.425,1.85,0.508,2.758C153.166,214.51,153.208,215.409,153.026,216.403z"/>
		</g>
		<g>
			<path d="M187.489,109.046c-2.564-0.154-5.128-0.245-7.69-0.282c-2.563-0.029-5.125-0.016-7.684,0.109
				c-2.56,0.086-5.115,0.285-7.667,0.527c-1.277,0.114-2.55,0.259-3.823,0.42c-0.318,0.042-0.644,0.052-0.934,0.139
				c-0.296,0.088-0.571,0.246-0.825,0.433c-0.509,0.379-0.924,0.878-1.332,1.371c0.377-0.518,0.757-1.043,1.256-1.467
				c0.249-0.209,0.527-0.395,0.842-0.511c0.322-0.117,0.644-0.145,0.957-0.207c1.268-0.211,2.54-0.399,3.816-0.56
				c2.552-0.322,5.119-0.519,7.688-0.644c2.571-0.084,5.145-0.105,7.715,0.007C182.379,108.485,184.942,108.709,187.489,109.046z"/>
		</g>
		<g>
			<path style="fill:#FFFFFF;" d="M188.452,139.66c3.499,7.122,2.513,17.541-3.379,22.645c-6.908,5.984-16.668,3.56-22.406-1.748"/>
			<path d="M188.452,139.66c1.872,3.645,2.508,7.885,2.038,11.972c-0.473,4.061-2.139,8.166-5.32,10.916
				c-1.578,1.35-3.451,2.358-5.451,2.916c-1.999,0.559-4.11,0.687-6.156,0.408c-4.102-0.541-7.95-2.489-10.897-5.315
				c1.529,1.355,3.266,2.464,5.118,3.297c1.846,0.844,3.816,1.419,5.825,1.638c2.006,0.213,4.053,0.097,5.986-0.465
				c1.932-0.554,3.733-1.54,5.25-2.858c3.086-2.617,4.722-6.605,5.263-10.585c0.275-2.006,0.275-4.054,0.001-6.067
				C189.849,143.504,189.314,141.514,188.452,139.66z"/>
		</g>
		<g>
			<g>
				
					<ellipse style="fill:#FFFFFF;stroke:#000000;stroke-width:0.5;stroke-miterlimit:10;" cx="153.452" cy="29" rx="13.387" ry="13.19"/>
				<g>
					<path d="M150.273,17.985c-2.367,1.764-4.086,4.327-4.648,7.171c-0.604,2.835-0.034,5.867,1.444,8.423
						c-1.844-2.342-2.52-5.561-1.933-8.523C145.765,22.102,147.656,19.411,150.273,17.985z"/>
				</g>
				<g>
					<path d="M158.017,18.011c2.079,1.318,3.607,3.52,4.214,5.947c0.599,2.429,0.278,5.09-0.946,7.227
						c0.857-2.296,1.04-4.783,0.461-7.106C161.174,21.753,159.848,19.639,158.017,18.011z"/>
				</g>
				<g>
					<path d="M155.95,21.124c0.963,0.786,1.584,1.973,1.829,3.206c0.235,1.235,0.103,2.568-0.498,3.657
						c0.223-1.213,0.238-2.402,0.007-3.562C157.069,23.263,156.611,22.165,155.95,21.124z"/>
				</g>
				<g>
					<path d="M152.621,21.617c-0.825,1.591-1.406,3.258-1.677,4.99c-0.285,1.729-0.256,3.494,0.028,5.264
						c-0.667-1.671-0.803-3.552-0.521-5.343C150.746,24.738,151.465,22.996,152.621,21.617z"/>
				</g>
			</g>
			
				<ellipse style="fill:#FFFFFF;stroke:#000000;stroke-width:0.5;stroke-miterlimit:10;" cx="153.452" cy="47.419" rx="22.572" ry="22.24"/>
			<g>
				<path d="M135.145,45.495c-0.175-3.499,0.965-7.019,2.887-9.96c1.961-2.915,4.76-5.336,8.052-6.535
					c-3.105,1.575-5.756,3.931-7.636,6.811C136.525,38.662,135.386,42.021,135.145,45.495z"/>
			</g>
			<g>
				<path d="M168.219,32.596c1.022,1.248,1.714,2.761,2.113,4.333c0.383,1.575,0.48,3.237,0.159,4.818
					c-0.072-1.607-0.257-3.17-0.644-4.697C169.476,35.518,168.908,34.049,168.219,32.596z"/>
			</g>
			<g>
				<path d="M173.026,40.015c0.528,1.568,0.665,3.263,0.519,4.919c-0.163,1.654-0.615,3.294-1.427,4.736
					c0.447-1.588,0.785-3.17,0.929-4.782C173.208,43.277,173.17,41.659,173.026,40.015z"/>
			</g>
			<g>
				<path d="M134.748,38.763c-0.725,1.972-1.113,4.02-1.105,6.082c-0.006,2.062,0.384,4.109,1.109,6.082
					c-1.085-1.808-1.602-3.957-1.608-6.082C133.15,42.72,133.665,40.572,134.748,38.763z"/>
			</g>
			<g>
				<path d="M149.848,25.519c-2.668,3.231-3.616,7.587-2.541,11.636c-0.909-1.903-1.07-4.152-0.619-6.231
					C147.147,28.847,148.23,26.87,149.848,25.519z"/>
			</g>
			<g>
				<path d="M158.844,28.076c0.933,1.579,1.308,3.482,1.198,5.33c-0.122,1.846-0.735,3.688-1.861,5.136
					c0.784-1.648,1.255-3.389,1.362-5.167C159.663,31.596,159.415,29.809,158.844,28.076z"/>
			</g>
			<g>
				<g>
					<path style="fill:#FFFFFF;stroke:#000000;stroke-width:0.5;stroke-miterlimit:10;" d="M131.055,55.551
						c-0.271-0.023-0.571-0.018-0.78,0.143c-0.15,0.116-0.226,0.293-0.28,0.467c-0.372,1.22,0.15,2.515,0.781,3.639
						c0.631,1.125,1.395,2.235,1.549,3.495c0.095,0.776-0.049,1.578,0.174,2.331c0.307,1.034,1.352,1.843,2.503,1.937
						c-0.157-2.784-0.315-5.569-0.469-8.353C134.42,57.145,133.788,55.551,131.055,55.551z"/>
					<g>
						<path d="M131.139,57.975c-0.2-0.479,0.025-1.104,0.508-1.401l0.1-0.061l0.074,0.11c0.769,1.141,1.378,2.4,1.778,3.725
							l0.032,0.104l-0.066,0.112c-0.086,0.146-0.324,0.181-0.402,0.146c-0.094-0.022-0.152-0.05-0.204-0.072
							c-0.122-0.05-0.121-0.049-0.136-0.042c-0.068,0.034-0.125,0.112-0.079,0.27c0.117,0.337,0.392,0.754,0.57,1.156
							c0.193,0.409,0.371,0.851,0.408,1.32c0.028,0.461-0.065,0.956-0.366,1.299c0.204-0.402,0.228-0.851,0.129-1.265
							c-0.084-0.417-0.278-0.802-0.504-1.175c-0.229-0.389-0.476-0.705-0.686-1.198c-0.115-0.256-0.021-0.723,0.35-0.859
							c0.09-0.037,0.203-0.05,0.304-0.027c0.088,0.02,0.148,0.047,0.201,0.068c0.051,0.022,0.095,0.038,0.11,0.04
							c0.029-0.008-0.082,0.004-0.104,0.052l-0.035,0.216c-0.397-1.283-0.902-2.534-1.526-3.737l0.173,0.048
							C131.356,56.979,131.059,57.469,131.139,57.975z"/>
					</g>
					<g>
						<path d="M131.805,59.435c-0.29-0.342-0.225-0.862,0.043-1.196l0.084-0.105l0.1-0.001c0.351-0.003,0.643,0.316,0.573,0.604
							c-0.221-0.169-0.417-0.153-0.541-0.125l0.183-0.105C132.098,58.788,131.984,59.042,131.805,59.435z"/>
					</g>
				</g>
				<g>
					<path style="fill:#FFFFFF;stroke:#000000;stroke-width:0.5;stroke-miterlimit:10;" d="M175.419,55.551
						c0.271-0.023,0.571-0.018,0.78,0.143c0.15,0.116,0.227,0.293,0.28,0.467c0.372,1.22-0.15,2.515-0.781,3.639
						c-0.631,1.125-1.395,2.235-1.549,3.495c-0.095,0.776,0.049,1.578-0.174,2.331c-0.307,1.034-1.352,1.843-2.503,1.937
						c0.156-2.784,0.315-5.569,0.469-8.353C172.054,57.145,172.686,55.551,175.419,55.551z"/>
					<g>
						<path d="M175.335,57.975c0.079-0.506-0.218-0.996-0.63-1.171l0.173-0.048c-0.624,1.203-1.13,2.454-1.526,3.737l-0.035-0.216
							c-0.022-0.048-0.133-0.06-0.103-0.052c0.015-0.002,0.059-0.018,0.11-0.04c0.053-0.021,0.113-0.049,0.201-0.069
							c0.101-0.023,0.214-0.01,0.304,0.027c0.37,0.136,0.465,0.603,0.35,0.859c-0.209,0.493-0.457,0.809-0.685,1.198
							c-0.226,0.373-0.42,0.758-0.504,1.175c-0.099,0.414-0.076,0.864,0.129,1.265c-0.301-0.343-0.394-0.838-0.366-1.299
							c0.038-0.469,0.215-0.911,0.408-1.32c0.178-0.402,0.454-0.819,0.57-1.156c0.046-0.159-0.01-0.236-0.079-0.27
							c-0.015-0.007-0.014-0.009-0.136,0.042c-0.052,0.022-0.11,0.05-0.204,0.072c-0.078,0.035-0.316,0-0.402-0.146l-0.066-0.112
							l0.031-0.104c0.4-1.325,1.009-2.584,1.778-3.725l0.074-0.11l0.1,0.061C175.311,56.871,175.536,57.496,175.335,57.975z"/>
					</g>
					<g>
						<path d="M174.669,59.435c-0.179-0.394-0.294-0.647-0.441-0.929l0.183,0.105c-0.124-0.028-0.32-0.044-0.541,0.125
							c-0.07-0.288,0.222-0.607,0.573-0.604l0.1,0.001l0.084,0.105C174.894,58.574,174.96,59.093,174.669,59.435z"/>
					</g>
				</g>
			</g>
			<path style="fill:#FFFFFF;stroke:#000000;stroke-width:0.5;stroke-miterlimit:10;" d="M133.93,54.466l0.897,12.352
				c0,8.557,14.435,17.661,15.797,18.386c1.212,0.645,3.682,1.127,6.188-0.6c0.887-0.611,14.837-9.859,14.837-17.786l0.911-12.352
				l-0.88-7.856c-0.418-3.731-3.345-6.685-7.071-7.139l-4.045-0.492c-6.198-0.754-12.265-0.253-18.422,0.508
				c-3.618,0.447-6.491,3.256-7.02,6.862L133.93,54.466z"/>
			<g>
				<g>
					<path style="fill:#FFFFFF;stroke:#000000;stroke-width:0.5;stroke-miterlimit:10;" d="M148.037,57.972
						c-0.961,0.097-1.938,0.186-2.921,0.23c-1.205,0.067-2.426,0.082-3.631-0.007c-1.412-0.089-2.795-0.319-4.127-0.749
						c0.843-1.246,2.108-2.196,3.535-2.664c0.089-0.03,0.17-0.052,0.259-0.074c1.346-0.393,2.67-0.319,4.045-0.208
						c0.037,0,0.074,0.007,0.111,0.015c0.755,0.089,1.435,0.534,1.797,1.209C147.483,56.436,147.734,57.253,148.037,57.972z"/>
					<path d="M145.509,56.258c0,0.764-0.27,1.454-0.7,1.944c-1.001,0.067-2.014,0.082-3.015-0.007
						c-0.43-0.482-0.694-1.172-0.694-1.936c0-0.579,0.154-1.113,0.418-1.551c1.118-0.393,2.217-0.319,3.359-0.208
						c0.031,0,0.061,0.007,0.092,0.015C145.306,54.982,145.509,55.591,145.509,56.258z"/>
					<g>
						<path d="M136.644,56.601c0.389-0.887,1.259-1.441,2.063-1.907c0.828-0.47,1.729-0.813,2.658-1.028
							c0.93-0.206,1.887-0.312,2.837-0.259c0.949,0.049,1.891,0.216,2.773,0.544c-1.858-0.264-3.712-0.219-5.497,0.202
							c-0.895,0.195-1.758,0.51-2.597,0.882C138.056,55.429,137.203,55.839,136.644,56.601z"/>
					</g>
					<g>
						<path d="M146.893,53.914c0.556,0.502,0.959,1.124,1.288,1.776c0.313,0.661,0.555,1.361,0.608,2.109
							c-0.422-0.617-0.736-1.252-1.057-1.889C147.428,55.264,147.121,54.625,146.893,53.914z"/>
					</g>
				</g>
				<g>
					<path d="M135.506,51.653c0.885-0.792,2.027-1.249,3.139-1.609c1.124-0.36,2.278-0.595,3.44-0.764
						c0.58-0.094,1.168-0.132,1.757-0.18c0.297-0.019,0.593-0.025,0.898-0.019c0.149-0.001,0.314,0.015,0.479,0.026
						c0.104,0.017,0.233,0.039,0.312,0.067l0.21,0.083c0.553,0.238,1.113,0.552,1.557,0.978c0.443,0.423,0.796,0.889,1.126,1.38
						c-0.501-0.314-0.966-0.675-1.447-0.953c-0.478-0.28-0.978-0.468-1.517-0.614c-0.363-0.148-0.998-0.013-1.543,0.013
						c-0.566,0.053-1.131,0.13-1.698,0.2c-1.134,0.145-2.264,0.32-3.39,0.515C137.702,50.989,136.59,51.207,135.506,51.653z"/>
				</g>
				<g>
					<path style="fill:#FFFFFF;stroke:#000000;stroke-width:0.5;stroke-miterlimit:10;" d="M169.11,57.445
						c-1.368,0.438-2.796,0.668-4.245,0.764c-0.969,0.059-1.952,0.059-2.928,0.03c-1.176-0.052-2.352-0.156-3.498-0.267
						c0.303-0.72,0.555-1.536,0.932-2.248c0.377-0.712,1.109-1.165,1.908-1.224c0.141-0.007,0.281-0.022,0.421-0.03
						c1.206-0.089,2.374-0.111,3.565,0.215c0.103,0.03,0.214,0.059,0.318,0.096C167.01,55.249,168.267,56.199,169.11,57.445z"/>
					<path d="M165.473,56.258c0,0.794-0.322,1.506-0.826,1.951c-0.826,0.059-1.665,0.059-2.498,0.03
						c-0.523-0.445-0.858-1.165-0.858-1.981c0-0.705,0.252-1.343,0.656-1.788c1.028-0.089,2.024-0.111,3.04,0.215
						C165.29,55.108,165.473,55.665,165.473,56.258z"/>
					<g>
						<path d="M169.83,56.601c-0.559-0.762-1.412-1.172-2.237-1.566c-0.839-0.373-1.702-0.687-2.597-0.882
							c-1.785-0.421-3.639-0.466-5.497-0.202c0.882-0.328,1.824-0.495,2.773-0.544c0.95-0.053,1.906,0.053,2.837,0.259
							c0.929,0.215,1.83,0.558,2.658,1.028C168.571,55.16,169.441,55.714,169.83,56.601z"/>
					</g>
					<g>
						<path d="M159.581,53.914c-0.228,0.712-0.535,1.35-0.839,1.996c-0.321,0.637-0.635,1.272-1.057,1.889
							c0.052-0.747,0.295-1.448,0.608-2.109C158.622,55.038,159.025,54.416,159.581,53.914z"/>
					</g>
				</g>
				<g>
					<path d="M170.968,51.653c-1.156-0.481-2.351-0.698-3.556-0.919c-1.205-0.203-2.415-0.39-3.629-0.529
						c-0.605-0.08-1.213-0.144-1.81-0.186c-0.144-0.008-0.302-0.026-0.436-0.025l-0.204-0.003c-0.041,0.012-0.055-0.009-0.124,0.013
						c-0.27,0.08-0.538,0.185-0.804,0.303c-1.061,0.491-2.031,1.277-3.062,1.992c0.74-1.007,1.566-1.979,2.691-2.679
						c0.28-0.174,0.576-0.331,0.894-0.446c0.076-0.032,0.221-0.055,0.331-0.074l0.26-0.017c0.175-0.013,0.327-0.006,0.493-0.009
						c0.641,0.016,1.266,0.074,1.892,0.14c1.246,0.164,2.482,0.398,3.689,0.765C168.786,50.343,170.017,50.808,170.968,51.653z"/>
				</g>
				<g>
					<path d="M149.318,51.386c0.773,0.656,1.193,1.648,1.421,2.613c0.213,0.982,0.257,1.977,0.15,2.968
						c-0.283-0.96-0.416-1.925-0.637-2.857C150.043,53.173,149.771,52.273,149.318,51.386z"/>
				</g>
			</g>
			<g>
				<g>
					<path d="M145.92,70.672c1.194,0.477,2.442,0.752,3.699,0.924c1.259,0.161,2.529,0.244,3.799,0.213
						c1.27,0.007,2.539-0.098,3.795-0.28c1.253-0.19,2.504-0.461,3.668-1.008c-1.068,0.732-2.341,1.115-3.601,1.386
						c-1.269,0.265-2.565,0.368-3.858,0.401c-1.294-0.01-2.592-0.088-3.865-0.334C148.289,71.719,147.027,71.337,145.92,70.672z"/>
				</g>
				<g>
					<path d="M152.029,70.663c0.53,0.04,0.975,0.047,1.45,0.027c0.473-0.008,0.941-0.053,1.475-0.027
						c-0.411,0.347-0.933,0.5-1.459,0.526C152.975,71.199,152.399,71.065,152.029,70.663z"/>
				</g>
				<g>
					<path d="M149.594,73.912c1.354,0.132,2.674,0.224,4.002,0.183c1.328-0.024,2.642-0.18,3.988-0.376
						c-1.237,0.574-2.61,0.835-3.976,0.876C152.242,74.618,150.858,74.424,149.594,73.912z"/>
				</g>
			</g>
			<g>
				<g>
					<path d="M150.273,64.641c-0.263,0.467-0.342,0.894-0.218,1.266c0.119,0.381,0.424,0.714,0.834,1.051
						c-0.535,0.039-1.114-0.314-1.311-0.901C149.381,65.455,149.75,64.789,150.273,64.641z"/>
				</g>
				<g>
					<path d="M156.223,64.641c0.522,0.148,0.891,0.815,0.694,1.417c-0.197,0.587-0.776,0.94-1.311,0.901
						c0.411-0.338,0.716-0.671,0.834-1.051C156.565,65.535,156.486,65.108,156.223,64.641z"/>
				</g>
				<g>
					<path d="M155.067,66.391c-0.215,0.693-0.98,1.18-1.752,1.159c-0.772-0.021-1.51-0.551-1.684-1.255
						C152.65,67.264,153.996,67.305,155.067,66.391z"/>
				</g>
			</g>
			<g>
				<path d="M138.709,40.801c-0.918,0.51-1.681,1.272-2.201,2.172c-0.517,0.902-0.848,1.903-1.005,2.928
					c-0.164,1.024-0.191,2.068-0.085,3.098c0.117,1.028,0.35,2.048,0.621,3.054c0.557,2.01,1.251,4.001,1.644,6.09
					c0.401,2.095,0.323,4.254,0.011,6.34c-0.651,4.174-2.109,8.169-2.217,12.344c-0.065,2.072,0.269,4.171,1.194,6.039
					c0.89,1.862,2.377,3.512,4.348,4.289c-1.999-0.698-3.584-2.31-4.566-4.179c-0.993-1.885-1.381-4.041-1.36-6.155
					c0.033-4.27,1.511-8.3,2.108-12.413c0.321-2.054,0.412-4.145,0.036-6.185c-0.361-2.045-1.062-4.027-1.568-6.074
					c-0.252-1.024-0.466-2.061-0.563-3.12c-0.084-1.059-0.038-2.128,0.159-3.171c0.201-1.041,0.579-2.051,1.141-2.948
					C136.969,42.015,137.773,41.274,138.709,40.801z"/>
			</g>
			<g>
				<path d="M171.883,51.105c0.463,1.355,0.662,2.796,0.702,4.231c0.026,1.439-0.103,2.873-0.255,4.296
					c-0.31,2.838-0.78,5.678-0.446,8.485c0.293,2.802,1.354,5.534,1.434,8.454c0.026,1.455-0.246,2.922-0.882,4.231
					c-0.637,1.295-1.72,2.427-3.1,2.862c1.353-0.515,2.333-1.681,2.878-2.966c0.57-1.287,0.79-2.717,0.719-4.113
					c-0.151-2.824-1.198-5.529-1.546-8.412c-0.3-2.902,0.174-5.771,0.563-8.588C172.332,56.777,172.647,53.886,171.883,51.105z"/>
			</g>
		</g>
		<g>
			<path d="M114.286,239.176c2.234,1.564,4.481,3.105,6.737,4.63c2.261,1.518,4.525,3.031,6.83,4.48
				c2.283,1.483,4.606,2.904,6.934,4.317c2.331,1.408,4.673,2.8,7.031,4.171c-2.445-1.208-4.856-2.487-7.225-3.839
				c-2.373-1.347-4.699-2.775-7.008-4.228c-2.288-1.487-4.561-2.997-6.779-4.586C118.583,242.538,116.41,240.886,114.286,239.176z"
				/>
		</g>
		<g>
			<path d="M160.334,258.664l5.868-3.641c1.944-1.23,3.888-2.459,5.795-3.743c1.929-1.251,3.823-2.556,5.716-3.862l5.652-3.968
				c-1.764,1.482-3.573,2.912-5.428,4.281c-1.851,1.374-3.752,2.679-5.665,3.966c-1.935,1.253-3.88,2.491-5.871,3.654
				C164.414,256.52,162.389,257.623,160.334,258.664z"/>
		</g>
		<g>
			<path d="M152.064,204.634c-0.092-3.037-0.158-6.075-0.191-9.112l-0.058-9.112l0.057-9.112c0.034-3.037,0.1-6.075,0.192-9.112
				c0.092,3.037,0.159,6.075,0.192,9.112l0.057,9.112l-0.058,9.112C152.222,198.559,152.156,201.596,152.064,204.634z"/>
		</g>
		<g>
			<g>
				<path d="M115.222,146.818c2.457-2.215,5.338-3.973,8.441-5.173c3.101-1.208,6.424-1.847,9.757-1.909
					c3.334-0.022,6.671,0.536,9.802,1.666c3.132,1.123,6.056,2.809,8.566,4.964c-2.626-2.009-5.582-3.555-8.693-4.6
					c-3.113-1.039-6.392-1.59-9.669-1.53c-3.278,0.02-6.542,0.653-9.629,1.768C120.713,143.126,117.797,144.744,115.222,146.818z"/>
			</g>
			<g>
				<path d="M121.401,171.675c2.548-0.092,5.096-0.158,7.644-0.191l7.644-0.058l7.644,0.057c2.548,0.034,5.096,0.1,7.644,0.192
					c-2.548,0.093-5.096,0.159-7.644,0.192l-7.644,0.057l-7.644-0.058C126.497,171.833,123.949,171.767,121.401,171.675z"/>
			</g>
		</g>
		<g>
			<g>
				<path d="M171.179,139.986c-3.431,0.167-6.824,0.724-10.053,1.822c-3.247,1.046-6.302,2.623-9.14,4.558
					c2.592-2.273,5.712-3.921,8.983-5.032C164.259,140.275,167.742,139.739,171.179,139.986z"/>
			</g>
			<g>
				<path style="fill:none;" d="M190.202,146.818"/>
			</g>
			<g>
				<path d="M183.744,171.675c-2.663,0.092-5.326,0.158-7.989,0.191l-7.989,0.058l-7.989-0.057c-2.663-0.034-5.326-0.1-7.989-0.192
					c2.663-0.092,5.326-0.159,7.989-0.192l7.989-0.057l7.989,0.058C178.418,171.517,181.081,171.584,183.744,171.675z"/>
			</g>
		</g>
		<g>
			<path d="M139.736,170.346c3.857-0.207,7.714-0.22,11.571-0.25c3.857,0.029,7.714,0.042,11.571,0.25
				c-3.857,0.208-7.714,0.221-11.571,0.25C147.449,170.567,143.593,170.553,139.736,170.346z"/>
		</g>
		<g>
			<path d="M99.495,180.179c-0.329-3.618-0.464-7.242-0.616-10.865c-0.093-3.625-0.203-7.25-0.117-10.882
				c0.33,3.617,0.465,7.242,0.616,10.865C99.471,172.923,99.58,176.548,99.495,180.179z"/>
		</g>
		<g>
			<path d="M93.582,138.981c0.488,0.523,0.843,1.114,1.167,1.722c0.307,0.616,0.582,1.249,0.722,1.95
				c-0.489-0.522-0.844-1.114-1.167-1.722C93.999,140.315,93.724,139.682,93.582,138.981z"/>
		</g>
		<g>
			<path d="M98.595,141.809c1.052-1.582,2.299-3.022,3.632-4.37c1.347-1.335,2.787-2.582,4.37-3.633l-4.017,3.986L98.595,141.809z"
				/>
		</g>
		<g>
			<path d="M145.544,92.477c0.826,2.633,1.465,5.309,2.119,7.982c0.597,2.686,1.21,5.369,1.633,8.096
				c-0.828-2.632-1.465-5.309-2.119-7.982C146.581,97.886,145.969,95.204,145.544,92.477z"/>
		</g>
		<g>
			<path d="M136.113,183.595c0.606,2.594,1.035,5.233,1.277,7.891c0.25,2.658,0.301,5.333,0.223,8.003
				c-0.118,2.668-0.369,5.332-0.813,7.965c-0.438,2.633-1.06,5.234-1.857,7.775c0.618-2.59,1.108-5.205,1.477-7.833
				c0.363-2.629,0.615-5.273,0.694-7.925c0.119-2.65,0.061-5.306-0.106-7.955C136.834,188.868,136.539,186.224,136.113,183.595z"/>
		</g>
		<g>
			<path d="M136.514,180.444c1.993-1.771,4.332-3.166,6.849-4.101c2.515-0.943,5.207-1.413,7.899-1.419
				c2.692,0.034,5.378,0.536,7.883,1.505c2.507,0.963,4.831,2.383,6.804,4.177c-2.091-1.651-4.45-2.932-6.937-3.816
				c-2.489-0.878-5.117-1.371-7.752-1.366c-2.635-0.035-5.268,0.431-7.767,1.28C140.996,177.561,138.623,178.816,136.514,180.444z"
				/>
		</g>
		<g>
			<path d="M140.753,193.186c2.025,0.567,4.144,0.481,6.083-0.162c1.943-0.634,3.698-1.821,4.993-3.479
				c-0.966,1.886-2.809,3.286-4.837,3.953C144.963,194.163,142.65,194.13,140.753,193.186z"/>
		</g>
		<g>
			<path d="M138.107,204.767c-0.898,3.966,0.464,8.173,3.508,10.867c-1.769-1.036-3.067-2.836-3.705-4.804
				C137.278,208.861,137.279,206.643,138.107,204.767z"/>
		</g>
		<g>
			<path d="M147.74,194.742c1.141,0.227,2.167,0.963,2.879,1.9c0.704,0.942,1.129,2.132,1.031,3.292
				C151.074,197.712,149.718,195.906,147.74,194.742z"/>
		</g>
		<g>
			<path d="M153.331,197.248c0.415-0.702,1.039-1.253,1.727-1.676c0.697-0.409,1.477-0.701,2.292-0.735
				c-0.701,0.41-1.378,0.76-2.035,1.164C154.649,196.389,154.022,196.822,153.331,197.248z"/>
		</g>
		<g>
			<path d="M127.364,217.593c1.361,1.409,2.491,3.035,3.441,4.75c0.934,1.724,1.695,3.551,2.148,5.457
				c-0.823-1.776-1.649-3.523-2.587-5.217C129.445,220.879,128.418,219.242,127.364,217.593z"/>
		</g>
		<g>
			<path d="M174.378,229.651c0.175-2.216,0.834-4.395,1.811-6.403c0.991-2.001,2.312-3.855,3.96-5.348
				c-1.355,1.757-2.552,3.598-3.511,5.568C175.663,225.431,174.938,227.504,174.378,229.651z"/>
		</g>
		<g>
			<path d="M125.233,173.93c0.366,1.404,0.929,2.704,1.726,3.863c0.786,1.166,1.788,2.167,2.959,3.024
				c-1.367-0.513-2.539-1.528-3.373-2.743C125.723,176.852,125.21,175.39,125.233,173.93z"/>
		</g>
		<g>
			<path d="M129.75,174.203c0.495,0.22,0.884,0.545,1.249,0.895c0.351,0.364,0.676,0.753,0.895,1.249
				c-0.496-0.219-0.885-0.544-1.249-0.895C130.295,175.087,129.97,174.698,129.75,174.203z"/>
		</g>
		<g>
			<path d="M152.527,131.061c0.092,2.412,0.158,4.824,0.191,7.235l0.058,7.235l-0.057,7.235c-0.034,2.412-0.1,4.824-0.192,7.235
				c-0.092-2.412-0.159-4.824-0.192-7.235l-0.057-7.235l0.058-7.235C152.369,135.884,152.435,133.472,152.527,131.061z"/>
		</g>
		<g>
			<path d="M98.101,186.713c1.011,1.258,1.777,2.703,2.361,4.209c0.567,1.512,0.957,3.101,1.038,4.713
				c-0.467-1.543-0.932-3.055-1.505-4.535C99.439,189.614,98.779,188.175,98.101,186.713z"/>
		</g>
		<g>
			<path d="M187.217,109.046c-2.564-0.154-5.128-0.245-7.69-0.282c-2.563-0.029-5.125-0.016-7.684,0.109
				c-2.56,0.086-5.115,0.285-7.666,0.527c-1.277,0.114-2.55,0.259-3.823,0.42c-0.318,0.042-0.644,0.052-0.934,0.139
				c-0.296,0.088-0.571,0.246-0.824,0.433c-0.509,0.379-0.924,0.878-1.332,1.371c0.377-0.518,0.757-1.043,1.256-1.467
				c0.249-0.209,0.527-0.395,0.842-0.511c0.322-0.117,0.644-0.145,0.957-0.207c1.268-0.211,2.54-0.399,3.816-0.56
				c2.552-0.322,5.119-0.519,7.688-0.644c2.571-0.084,5.145-0.105,7.715,0.007C182.107,108.485,184.671,108.709,187.217,109.046z"/>
		</g>
		<g>
			<path style="fill:#FFFFFF;" d="M188.181,139.66c3.499,7.122,2.513,17.541-3.379,22.645c-6.908,5.984-16.668,3.56-22.407-1.748"/>
			<path d="M188.181,139.66c1.872,3.645,2.508,7.885,2.038,11.972c-0.473,4.061-2.139,8.166-5.32,10.916
				c-1.578,1.35-3.451,2.358-5.451,2.916c-1.999,0.559-4.11,0.687-6.156,0.408c-4.102-0.541-7.95-2.489-10.897-5.315
				c1.529,1.355,3.266,2.464,5.118,3.297c1.846,0.844,3.816,1.419,5.825,1.638c2.006,0.213,4.053,0.097,5.986-0.465
				c1.932-0.554,3.733-1.54,5.25-2.858c3.086-2.617,4.722-6.605,5.263-10.585c0.275-2.006,0.275-4.054,0.001-6.067
				C189.578,143.504,189.043,141.514,188.181,139.66z"/>
		</g>
		<g>
			<g>
				<path d="M184.567,171.675c-2.548,0.092-5.096,0.158-7.644,0.191l-7.644,0.058l-7.644-0.057c-2.548-0.034-5.096-0.1-7.644-0.192
					c2.548-0.092,5.096-0.159,7.644-0.192l7.644-0.057l7.644,0.058C179.471,171.517,182.02,171.584,184.567,171.675z"/>
			</g>
		</g>
		<g>
			<path d="M166.233,170.346c-3.857,0.206-7.714,0.22-11.571,0.25c-3.857-0.029-7.714-0.042-11.571-0.25
				c3.857-0.208,7.714-0.221,11.571-0.25C158.519,170.126,162.376,170.14,166.233,170.346z"/>
		</g>
		<g>
			<path d="M206.473,180.179c-0.084-3.632,0.024-7.257,0.117-10.882c0.151-3.624,0.286-7.248,0.616-10.865
				c0.086,3.632-0.024,7.257-0.117,10.882C206.938,172.938,206.802,176.562,206.473,180.179z"/>
		</g>
		<g>
			<path d="M212.386,138.981c-0.142,0.701-0.417,1.334-0.723,1.95c-0.323,0.608-0.678,1.199-1.167,1.722
				c0.141-0.702,0.415-1.334,0.722-1.95C211.543,140.096,211.898,139.504,212.386,138.981z"/>
		</g>
		<g>
			<path d="M207.374,141.809l-3.986-4.017l-4.017-3.986c1.583,1.051,3.023,2.298,4.37,3.633
				C205.075,138.787,206.322,140.227,207.374,141.809z"/>
		</g>
		<g>
			<path d="M160.424,92.477c-0.424,2.727-1.036,5.409-1.633,8.096c-0.654,2.673-1.291,5.35-2.119,7.982
				c0.423-2.727,1.035-5.41,1.633-8.096C158.959,97.786,159.598,95.11,160.424,92.477z"/>
		</g>
		<g>
			<path d="M169.856,183.595c-0.426,2.629-0.721,5.273-0.895,7.921c-0.167,2.649-0.225,5.305-0.106,7.955
				c0.078,2.652,0.331,5.296,0.694,7.925c0.369,2.628,0.859,5.243,1.477,7.833c-0.797-2.542-1.419-5.142-1.857-7.775
				c-0.444-2.633-0.695-5.297-0.813-7.965c-0.078-2.669-0.027-5.345,0.223-8.003C168.821,188.828,169.25,186.189,169.856,183.595z"
				/>
		</g>
		<g>
			<path d="M165.216,193.186c-1.897,0.944-4.21,0.978-6.24,0.313c-2.028-0.667-3.872-2.067-4.837-3.953
				c1.295,1.657,3.051,2.844,4.993,3.479C161.072,193.667,163.19,193.753,165.216,193.186z"/>
		</g>
		<g>
			<path d="M167.862,204.767c0.828,1.876,0.829,4.094,0.197,6.063c-0.638,1.967-1.936,3.767-3.705,4.804
				C167.398,212.941,168.759,208.733,167.862,204.767z"/>
		</g>
		<g>
			<path d="M180.735,173.93c0.023,1.46-0.489,2.922-1.313,4.144c-0.833,1.215-2.006,2.23-3.372,2.743
				c1.171-0.858,2.173-1.858,2.959-3.024C179.806,176.634,180.369,175.335,180.735,173.93z"/>
		</g>
		<g>
			<path d="M176.219,174.203c-0.22,0.495-0.545,0.884-0.895,1.249c-0.364,0.351-0.753,0.676-1.249,0.895
				c0.219-0.496,0.544-0.885,0.895-1.249C175.335,174.748,175.724,174.422,176.219,174.203z"/>
		</g>
		<g>
			<path d="M207.868,186.713c-0.679,1.462-1.338,2.9-1.894,4.387c-0.573,1.48-1.038,2.993-1.505,4.535
				c0.081-1.612,0.471-3.201,1.038-4.713C206.091,189.417,206.857,187.971,207.868,186.713z"/>
		</g>
		<g>
			<path d="M190.202,146.818c-2.788-2.004-5.803-3.653-9.022-4.774c-3.201-1.173-6.577-1.808-10.001-2.058
				c3.44-0.167,6.908,0.451,10.169,1.588C184.59,142.763,187.667,144.485,190.202,146.818z"/>
		</g>
		<g>
			<path d="M121.444,324.702c1.784,3.717,3.578,7.417,5.572,11.014c1.942,3.625,4.078,7.139,6.232,10.655
				c-2.499-3.283-4.671-6.806-6.671-10.416C124.629,332.317,122.848,328.582,121.444,324.702z"/>
		</g>
		<g>
			<path d="M117.341,343.193c0.189-0.865,0.514-1.667,0.87-2.455c0.373-0.779,0.78-1.543,1.323-2.243
				c-0.188,0.866-0.512,1.668-0.87,2.455C118.29,341.728,117.883,342.492,117.341,343.193z"/>
		</g>
		<g>
			<path d="M172.27,341.42c1.149-1.599,2.41-3.1,3.697-4.577c1.301-1.465,2.63-2.905,4.072-4.246c-1.148,1.6-2.409,3.1-3.697,4.577
				C175.04,338.637,173.711,340.078,172.27,341.42z"/>
		</g>
		<g>
			<path d="M184.991,337.869c0.343,0.466,0.543,0.975,0.709,1.494c0.148,0.525,0.261,1.059,0.23,1.638
				c-0.344-0.466-0.544-0.975-0.709-1.494C185.074,338.982,184.961,338.447,184.991,337.869z"/>
		</g>
		<g>
			<path d="M133.495,401.339c0.114,2.255,0.291,4.503,0.521,6.742c0.238,2.239,0.518,4.472,0.907,6.689
				c0.35,2.223,0.806,4.427,1.306,6.622c0.506,2.194,1.066,4.377,1.687,6.548c-0.796-2.113-1.486-4.269-2.06-6.456
				c-0.58-2.186-1.035-4.404-1.425-6.633c-0.35-2.235-0.639-4.481-0.796-6.737C133.47,405.859,133.426,403.597,133.495,401.339z"/>
		</g>
		<g>
			<path d="M172.325,401.074c-0.106,2.186-0.31,4.368-0.619,6.537c-0.301,2.17-0.718,4.323-1.181,6.465
				c-0.502,2.133-1.054,4.255-1.715,6.344c-0.655,2.09-1.41,4.148-2.255,6.167c0.672-2.082,1.299-4.175,1.887-6.276
				c0.582-2.103,1.135-4.213,1.597-6.345c0.502-2.123,0.909-4.266,1.29-6.414C171.701,405.401,172.036,403.243,172.325,401.074z"/>
		</g>
	</g>
	<g>
		<g>
			<g>
				<path style="fill:#FFFFFF;" d="M292.551,259.488c0.51,5.948,0.649,11.928,0.417,17.894c2.803,2.626,5.167,5.976,6.83,9.438
					c2.488,0.743,4.671,1.719,7.002,2.862c0.282-3.013-1.687-6.094-4.54-7.103c-1.425-3.015-3.29-6.322-4.716-9.336
					c0.616-4.848,0.972-9.669,0.547-14.536"/>
				<path d="M292.551,259.488c0.602,5.941,0.808,11.926,0.609,17.901l-0.06-0.147c2.889,2.675,5.186,5.948,6.91,9.477l-0.144-0.123
					c2.441,0.719,4.779,1.741,7.043,2.865l-0.354,0.198c0.28-2.897-1.617-5.888-4.369-6.87l-0.088-0.031l-0.04-0.084
					c-1.487-3.141-3.194-6.188-4.665-9.36l-0.021-0.045l0.006-0.047c0.637-4.805,1.072-9.662,0.713-14.515
					c0.493,4.84,0.208,9.734-0.381,14.557l-0.015-0.092c1.519,3.129,3.263,6.151,4.766,9.312l-0.127-0.115
					c2.962,1.05,4.987,4.194,4.711,7.336l-0.031,0.356l-0.323-0.158c-2.262-1.105-4.556-2.143-6.96-2.858l-0.1-0.03l-0.045-0.094
					c-1.673-3.496-3.952-6.715-6.75-9.399l-0.065-0.062l0.004-0.086C293.042,271.419,292.969,265.444,292.551,259.488z"/>
			</g>
			<g>
				<path style="fill:#FFFFFF;" d="M292.622,263.691c0.067,5.97-0.237,11.944-0.911,17.876c2.6,2.827,4.709,6.343,6.111,9.919
					c2.426,0.926,4.531,2.06,6.77,3.374c0.505-2.984-1.23-6.202-4.001-7.42c-1.198-3.112-2.812-6.548-4.01-9.66
					c0.973-4.789,1.687-9.57,1.624-14.456"/>
				<path d="M292.622,263.691c0.16,5.969-0.079,11.953-0.72,17.897l-0.049-0.151c2.683,2.882,4.731,6.316,6.188,9.963l-0.134-0.133
					c2.381,0.898,4.637,2.091,6.811,3.38l-0.367,0.171c0.494-2.868-1.175-5.992-3.848-7.175l-0.085-0.038l-0.033-0.087
					c-1.25-3.242-2.726-6.408-3.958-9.68l-0.018-0.047l0.01-0.047c0.992-4.744,1.786-9.556,1.788-14.422
					c0.133,4.863-0.514,9.723-1.46,14.489l-0.008-0.093c1.283,3.233,2.798,6.377,4.062,9.64l-0.118-0.124
					c2.876,1.267,4.662,4.552,4.154,7.665l-0.058,0.352l-0.31-0.181c-2.174-1.27-4.384-2.475-6.729-3.367l-0.097-0.037l-0.038-0.097
					c-1.409-3.61-3.443-6.989-6.034-9.874l-0.06-0.066l0.01-0.086C292.227,275.625,292.597,269.661,292.622,263.691z"/>
			</g>
		</g>
		<g>
			<path d="M341.651,40.801c-0.918,0.51-1.681,1.272-2.201,2.172c-0.517,0.902-0.848,1.903-1.005,2.928
				c-0.164,1.024-0.191,2.068-0.085,3.098c0.117,1.028,0.35,2.048,0.621,3.054c0.557,2.01,1.251,4.001,1.644,6.09
				c0.401,2.095,0.323,4.254,0.011,6.34c-0.651,4.174-2.109,8.169-2.217,12.344c-0.065,2.072,0.268,4.171,1.194,6.039
				c0.89,1.862,2.378,3.512,4.348,4.289c-1.999-0.698-3.584-2.31-4.566-4.179c-0.993-1.885-1.381-4.041-1.36-6.155
				c0.034-4.27,1.511-8.3,2.108-12.413c0.321-2.054,0.412-4.145,0.036-6.185c-0.361-2.045-1.062-4.027-1.568-6.074
				c-0.252-1.024-0.466-2.061-0.564-3.12c-0.084-1.059-0.038-2.128,0.159-3.171c0.201-1.041,0.579-2.051,1.141-2.948
				C339.911,42.015,340.715,41.274,341.651,40.801z"/>
		</g>
		<g>
			<path d="M374.826,51.105c0.463,1.355,0.663,2.796,0.702,4.231c0.026,1.439-0.103,2.873-0.255,4.296
				c-0.31,2.838-0.78,5.678-0.446,8.485c0.293,2.802,1.354,5.534,1.434,8.454c0.026,1.455-0.246,2.922-0.882,4.231
				c-0.637,1.295-1.72,2.427-3.1,2.862c1.353-0.515,2.333-1.681,2.878-2.966c0.57-1.287,0.79-2.717,0.719-4.113
				c-0.151-2.824-1.198-5.529-1.546-8.412c-0.3-2.902,0.174-5.771,0.563-8.588C375.274,56.777,375.59,53.886,374.826,51.105z"/>
		</g>
		<path style="fill:#FFFFFF;stroke:#000000;stroke-width:0.5;stroke-miterlimit:10;" d="M379.421,56.161
			c-0.053-0.174-0.13-0.351-0.28-0.467c-0.209-0.161-0.509-0.166-0.78-0.143c-1.724,0-2.61,0.636-3.059,1.623l0.2-2.707l-0.88-7.856
			c-0.418-3.731-3.345-6.685-7.071-7.139l-4.045-0.492c-6.198-0.754-12.265-0.253-18.422,0.508c-3.618,0.447-6.491,3.256-7.02,6.862
			l-1.191,8.116l0.2,2.751c-0.443-1.011-1.326-1.667-3.075-1.667c-0.271-0.023-0.571-0.018-0.78,0.143
			c-0.15,0.116-0.226,0.293-0.28,0.467c-0.372,1.22,0.15,2.514,0.781,3.639c0.631,1.125,1.396,2.235,1.549,3.495
			c0.095,0.776-0.049,1.578,0.174,2.331c0.294,0.992,1.269,1.769,2.364,1.914c0.767,8.34,14.436,16.96,15.759,17.664
			c1.212,0.645,3.681,1.127,6.188-0.6c0.86-0.592,14.005-9.308,14.798-17.064c1.095-0.145,2.07-0.922,2.364-1.914
			c0.223-0.753,0.08-1.555,0.174-2.331c0.154-1.26,0.918-2.37,1.549-3.495C379.271,58.675,379.793,57.381,379.421,56.161z"/>
		<g>
			<g>
				<path style="fill:#FFFFFF;" d="M419.356,259.488c-0.51,5.948-0.649,11.928-0.417,17.894c-2.803,2.626-5.167,5.976-6.83,9.438
					c-2.487,0.743-4.671,1.719-7.002,2.862c-0.282-3.013,1.687-6.094,4.54-7.103c1.425-3.015,3.29-6.322,4.715-9.336
					c-0.616-4.848-0.972-9.669-0.547-14.536"/>
				<path d="M419.356,259.488c-0.418,5.956-0.491,11.931-0.225,17.887l0.004,0.086l-0.065,0.062
					c-2.798,2.685-5.076,5.904-6.75,9.399l-0.045,0.094l-0.1,0.03c-2.405,0.715-4.698,1.754-6.96,2.858l-0.323,0.158l-0.031-0.356
					c-0.276-3.143,1.748-6.286,4.711-7.336l-0.127,0.115c1.502-3.161,3.247-6.183,4.766-9.312l-0.015,0.092
					c-0.589-4.823-0.874-9.717-0.381-14.557c-0.36,4.853,0.075,9.711,0.713,14.515l0.006,0.047l-0.021,0.045
					c-1.471,3.172-3.177,6.219-4.665,9.36l-0.04,0.084l-0.088,0.031c-2.753,0.981-4.649,3.972-4.369,6.87l-0.354-0.198
					c2.264-1.124,4.602-2.146,7.043-2.865l-0.144,0.123c1.724-3.529,4.02-6.802,6.91-9.477l-0.061,0.147
					C418.548,271.415,418.754,265.429,419.356,259.488z"/>
			</g>
			<g>
				<path style="fill:#FFFFFF;" d="M419.284,263.691c-0.067,5.97,0.237,11.944,0.911,17.876c-2.6,2.827-4.709,6.343-6.111,9.919
					c-2.426,0.926-4.531,2.06-6.77,3.374c-0.504-2.984,1.231-6.202,4.001-7.42c1.198-3.112,2.812-6.548,4.01-9.66
					c-0.973-4.789-1.687-9.57-1.624-14.456"/>
				<path d="M419.284,263.691c0.025,5.971,0.396,11.934,1.102,17.854l0.01,0.086l-0.06,0.066c-2.591,2.885-4.625,6.264-6.034,9.874
					l-0.038,0.097l-0.097,0.037c-2.345,0.892-4.555,2.097-6.729,3.367l-0.31,0.181l-0.058-0.352
					c-0.508-3.114,1.277-6.398,4.154-7.665l-0.118,0.124c1.264-3.263,2.779-6.407,4.062-9.64l-0.008,0.093
					c-0.945-4.766-1.593-9.626-1.46-14.489c0.001,4.866,0.796,9.678,1.787,14.422l0.01,0.047l-0.018,0.047
					c-1.232,3.272-2.707,6.438-3.958,9.68l-0.033,0.087l-0.085,0.038c-2.672,1.183-4.342,4.306-3.848,7.175l-0.367-0.171
					c2.174-1.289,4.43-2.482,6.811-3.38l-0.135,0.133c1.457-3.647,3.505-7.081,6.188-9.963l-0.049,0.151
					C419.363,275.644,419.125,269.66,419.284,263.691z"/>
			</g>
		</g>
		<path style="fill:#FFFFFF;stroke:#000000;stroke-width:0.5;stroke-miterlimit:10;" d="M417.694,185.302
			c-3.029-12.155-0.629-22.575-0.402-35.897c0.044-2.592-1.741-9.532-1.753-11.979c-0.072-14.598-1.663-26.078-10.977-27.92
			l-1.801-0.117c-1.004-0.444-2.924-0.958-3.996-1.169c-9.507-1.872-31.122-13.134-31.242-15.962
			c-0.35-8.234,0.073-16.944,0.332-25.167h-23.855c0.259,8.223,0.682,16.933,0.332,25.167c-0.12,2.828-21.735,14.09-31.242,15.962
			c-1.072,0.211-2.993,0.725-3.996,1.169l-1.801,0.117c-9.314,1.842-10.906,13.323-10.977,27.92
			c-0.012,2.447-1.797,9.388-1.753,11.979c0.227,13.322,2.627,23.742-0.402,35.897c-5.247,14.081-6.898,20.086-6.498,27.447
			c0.77,14.188,1.273,24.719,2.922,38.826c0.837,7.16,1.824,21.589,2.222,28.789c2.373,2.892,4.528,6.612,6.254,9.959
			c1.959,0.663,3.791,1.237,5.409,2.558c0.884-1.037,0.786-2.863-0.007-3.976c-0.793-1.112-2.019-1.79-3.202-2.431
			c-0.791-2.213-1.963-4.921-2.754-7.133c-1.407-3.937-0.014-8.569,0.327-12.752c1.562,3.664,2.805,6.874,3.717,10.766
			c0.576,2.458,0.21,5.421,1.977,7.168c0.327,0.323,0.704,0.624,1.15,0.7c0.446,0.076,0.966-0.146,1.104-0.591
			c0.056-0.18,0.045-0.375,0.034-0.564c-0.125-2.098-0.25-4.195-0.376-6.292c-0.153-2.555-0.46-5.727-0.58-8.284
			c-0.086-1.825,0.455-5.062-0.011-6.825c-0.618-2.339-1.188-7.132-3.628-9.943c-1.447-1.667-1.905-3.979-1.403-6.128
			c2.407-10.3,13.235-31.133,9.503-53.424c-0.161-0.961-0.01-3.326,0.351-6.561c0.216-1.935,3.459-6.816,3.937-9.237
			c2.819-14.27,3.557-27.088,3.411-34.797c2.052,9.714,10.976,41.532,7.858,49.992c-4.499,12.206-12.809,21.053-15.141,37.099
			h44.245h1.893h44.245c-2.332-16.046-10.642-24.893-15.141-37.099c-3.118-8.46,5.806-40.278,7.858-49.992
			c-0.146,7.709,0.592,20.526,3.411,34.797c0.478,2.421,3.721,7.302,3.937,9.237c0.361,3.236,0.512,5.601,0.351,6.561
			c-3.733,22.291,7.096,43.124,9.503,53.424c0.502,2.15,0.044,4.461-1.403,6.128c-2.44,2.811-3.01,7.605-3.628,9.943
			c-0.466,1.762,0.074,5-0.011,6.825c-0.12,2.557-0.428,5.729-0.58,8.284c-0.125,2.097-0.251,4.195-0.376,6.292
			c-0.011,0.189-0.022,0.383,0.034,0.564c0.138,0.445,0.658,0.667,1.104,0.591c0.445-0.076,0.823-0.378,1.15-0.7
			c1.768-1.746,1.402-4.71,1.977-7.168c0.911-3.892,2.154-7.102,3.717-10.766c0.341,4.183,1.734,8.815,0.327,12.752
			c-0.791,2.213-1.963,4.92-2.754,7.133c-1.183,0.641-2.409,1.319-3.202,2.431c-0.793,1.112-0.891,2.939-0.007,3.976
			c1.619-1.32,3.45-1.895,5.409-2.558c1.727-3.347,3.882-7.067,6.254-9.959c0.399-7.2,1.385-21.629,2.222-28.789
			c1.649-14.108,2.152-24.638,2.922-38.826C424.592,205.389,422.94,199.383,417.694,185.302z"/>
		<path style="fill:#FFFFFF;stroke:#000000;stroke-width:0.5;stroke-miterlimit:10;" d="M354.122,264.46
			c-0.831-2.969-33.538-24.645-43.388-27.597c-7.065,47.608,11.998,117.873,13.474,123.963c2.063,8.508,1.012,36.618,1.638,43.237
			c2.444,25.807,6.068,35.449,7.128,63.353c0.286,7.537-18.551,16.276-21.537,17.628c-1.559,0.706-3.813-0.255-4.321,1.347
			c-0.284,0.897,0.387,1.907,1.201,1.896l40.287-0.51c2.175-0.031,3.929-2.006,3.974-4.626c0.013-0.728-0.026-1.463-0.107-2.189
			c-0.261-2.349-1.188-3.661-1.853-5.926c-0.297-1.012-0.652-2.057-0.984-3.089c-0.353-1.096-0.453-2.265-0.298-3.383
			c0.282-2.038,0.401-5.045-0.656-6.884c-0.19-0.331-0.338-0.702-0.361-1.091c-1.346-22.741,6.533-38.943,5.939-64.088
			c-0.33-13.957-6.372-32.548-7.691-39.583C345.041,348.765,355.575,269.645,354.122,264.46z"/>
		<path style="fill:#FFFFFF;stroke:#000000;stroke-width:0.5;stroke-miterlimit:10;" d="M358.01,264.46
			c0.831-2.969,33.538-24.645,43.388-27.597c7.065,47.608-11.998,117.873-13.474,123.963c-2.063,8.508-1.012,36.618-1.638,43.237
			c-2.444,25.807-6.068,35.449-7.128,63.353c-0.286,7.537,18.551,16.276,21.537,17.628c1.559,0.706,3.813-0.255,4.321,1.347
			c0.284,0.897-0.387,1.907-1.201,1.896l-40.287-0.51c-2.175-0.031-3.929-2.006-3.974-4.626c-0.013-0.728,0.026-1.463,0.107-2.189
			c0.261-2.349,1.188-3.661,1.853-5.926c0.297-1.012,0.652-2.057,0.984-3.089c0.353-1.096,0.453-2.265,0.298-3.383
			c-0.282-2.038-0.401-5.045,0.656-6.884c0.19-0.331,0.338-0.702,0.361-1.091c1.346-22.741-6.533-40.018-5.939-65.164
			c0.33-13.957,6.372-31.472,7.691-38.507C367.091,348.765,356.558,269.645,358.01,264.46z"/>
		<path style="fill:#FFFFFF;stroke:#000000;stroke-width:0.5;stroke-miterlimit:10;" d="M360.11,229.668h-8.095h-41.28v7.194
			c0,0,6.124,27.564,43.599,27.564c1.12,0,2.359-0.035,3.523-0.035c30.655,0,43.532-27.529,43.532-27.529v-7.194H360.11z"/>
		<path style="fill:#FFFFFF;stroke:#000000;stroke-width:0.5;stroke-miterlimit:10;" d="M378.966,47.419
			c0,9.456-11.112,19.672-11.112,19.672c-2.524,0.962-8.591,2.567-11.46,2.567c-2.782,0-9.934-1.66-12.395-2.567
			c0,0-10.177-10.131-10.177-19.672c0-12.283,10.106-22.24,22.572-22.24C368.861,25.179,378.966,35.136,378.966,47.419z"/>
		<g>
			<path d="M338.087,45.495c-0.175-3.499,0.965-7.019,2.887-9.96c1.961-2.915,4.76-5.336,8.052-6.535
				c-3.105,1.575-5.756,3.931-7.636,6.811C339.468,38.662,338.328,42.021,338.087,45.495z"/>
		</g>
		<g>
			<path d="M371.162,32.596c1.022,1.248,1.714,2.761,2.113,4.333c0.383,1.575,0.48,3.237,0.159,4.818
				c-0.072-1.607-0.257-3.17-0.644-4.697C372.418,35.518,371.85,34.049,371.162,32.596z"/>
		</g>
		<g>
			<path d="M375.968,40.015c0.528,1.568,0.665,3.263,0.519,4.919c-0.163,1.654-0.615,3.294-1.427,4.736
				c0.447-1.588,0.785-3.17,0.929-4.782C376.15,43.277,376.113,41.659,375.968,40.015z"/>
		</g>
		<g>
			<path d="M337.69,38.763c-0.725,1.972-1.113,4.02-1.105,6.082c-0.006,2.062,0.384,4.109,1.109,6.082
				c-1.085-1.808-1.602-3.957-1.608-6.082C336.092,42.72,336.607,40.572,337.69,38.763z"/>
		</g>
		<g>
			<path d="M352.791,25.519c-2.668,3.231-3.616,7.587-2.541,11.636c-0.909-1.903-1.069-4.152-0.619-6.231
				C350.089,28.847,351.172,26.87,352.791,25.519z"/>
		</g>
		<g>
			<path d="M361.787,28.076c0.933,1.579,1.308,3.482,1.198,5.33c-0.122,1.846-0.735,3.688-1.861,5.136
				c0.784-1.648,1.255-3.389,1.362-5.167C362.605,31.596,362.357,29.809,361.787,28.076z"/>
		</g>
		<g>
			<g>
				<path d="M324.343,171.675c2.548-0.092,5.096-0.158,7.644-0.191l7.644-0.058l7.644,0.057c2.548,0.034,5.096,0.1,7.644,0.192
					c-2.548,0.093-5.096,0.159-7.644,0.192l-7.644,0.057l-7.644-0.058C329.439,171.833,326.891,171.767,324.343,171.675z"/>
			</g>
		</g>
		<g>
			<g>
				<path style="fill:none;" d="M393.144,146.818"/>
			</g>
			<g>
				<path d="M386.686,171.675c-2.663,0.092-5.326,0.158-7.989,0.191l-7.989,0.058l-7.989-0.057c-2.663-0.034-5.326-0.1-7.989-0.192
					c2.663-0.092,5.326-0.159,7.989-0.192l7.989-0.057l7.989,0.058C381.36,171.517,384.023,171.584,386.686,171.675z"/>
			</g>
		</g>
		<g>
			<path d="M342.678,170.346c3.857-0.207,7.714-0.22,11.571-0.25c3.857,0.029,7.714,0.042,11.571,0.25
				c-3.857,0.208-7.714,0.221-11.571,0.25C350.392,170.567,346.535,170.553,342.678,170.346z"/>
		</g>
		<g>
			<path d="M319.925,149.955c6.027-0.092,12.053-0.158,18.08-0.191l18.08-0.058l18.08,0.057c6.027,0.034,12.053,0.1,18.08,0.192
				c-6.027,0.092-12.053,0.159-18.08,0.192l-18.08,0.057l-18.08-0.058C331.978,150.113,325.952,150.046,319.925,149.955z"/>
		</g>
		<g>
			<path d="M355.469,131.061c0.092,2.412,0.158,4.824,0.191,7.235l0.058,7.235l-0.057,7.235c-0.034,2.412-0.1,4.824-0.192,7.235
				c-0.093-2.412-0.159-4.824-0.192-7.235l-0.057-7.235l0.058-7.235C355.311,135.884,355.378,133.472,355.469,131.061z"/>
		</g>
		<g>
			<g>
				<path d="M387.51,171.675c-2.548,0.092-5.096,0.158-7.644,0.191l-7.644,0.058l-7.644-0.057c-2.548-0.034-5.096-0.1-7.644-0.192
					c2.548-0.092,5.096-0.159,7.644-0.192l7.644-0.057l7.644,0.058C382.414,171.517,384.962,171.584,387.51,171.675z"/>
			</g>
		</g>
		<g>
			<path d="M413.276,267.242c-0.575-2.627-0.57-5.368-0.198-8.038c0.427-2.661,1.225-5.285,2.547-7.627
				c-0.94,2.51-1.687,5.069-2.053,7.701C413.149,261.901,413.112,264.567,413.276,267.242z"/>
		</g>
		<g>
			<path d="M298.631,267.242c0.164-2.675,0.126-5.341-0.296-7.964c-0.366-2.632-1.113-5.191-2.053-7.701
				c1.322,2.342,2.12,4.965,2.547,7.627C299.201,261.873,299.207,264.615,298.631,267.242z"/>
		</g>
		<g>
			<path d="M349.282,67.609c-2.533-1.732-4.532-4.21-5.929-6.955c-1.35-2.768-2.124-5.857-1.978-8.923
				c0.272,3.041,1.054,6.007,2.425,8.7C345.123,63.148,347.017,65.561,349.282,67.609z"/>
		</g>
		<g>
			<path d="M364.472,67.257c2.15-2.011,4.088-4.217,5.644-6.687c1.603-2.44,2.808-5.118,3.75-7.907
				c-0.54,2.904-1.75,5.672-3.33,8.177C368.909,63.315,366.891,65.561,364.472,67.257z"/>
		</g>
		<g>
			<path d="M348.198,68.531c-0.579,1.265-0.946,2.569-1.05,3.91c-0.117,1.34,0.03,2.686,0.392,4.029
				c-0.73-1.195-1.001-2.661-0.89-4.071C346.773,70.991,347.283,69.59,348.198,68.531z"/>
		</g>
		<g>
			<path d="M351.398,69.445c-0.221,1.211-0.239,2.398-0.016,3.558c0.212,1.162,0.657,2.262,1.299,3.312
				c-0.949-0.799-1.555-1.989-1.79-3.22C350.666,71.861,350.802,70.533,351.398,69.445z"/>
		</g>
		<g>
			<path d="M359.959,69.181c0.895,0.833,1.39,2.073,1.474,3.308c0.076,1.235-0.255,2.529-1.037,3.47
				C361.266,73.711,361.114,71.298,359.959,69.181z"/>
		</g>
		<g>
			<path d="M364.215,68.46c0.516,0.375,0.796,1.019,0.852,1.654c0.045,0.636-0.132,1.316-0.584,1.766
				c0.093-0.621,0.135-1.168,0.086-1.727C364.531,69.592,364.405,69.058,364.215,68.46z"/>
		</g>
		<g>
			
				<ellipse style="fill:#FFFFFF;stroke:#000000;stroke-width:0.5;stroke-miterlimit:10;" cx="356.394" cy="23.965" rx="13.387" ry="13.19"/>
			<g>
				<path d="M353.215,12.949c-2.367,1.764-4.086,4.327-4.648,7.171c-0.604,2.835-0.034,5.867,1.444,8.423
					c-1.844-2.342-2.52-5.561-1.933-8.523C348.708,17.066,350.599,14.376,353.215,12.949z"/>
			</g>
			<g>
				<path d="M360.959,12.975c2.079,1.318,3.607,3.52,4.214,5.947c0.599,2.429,0.278,5.09-0.946,7.227
					c0.857-2.296,1.04-4.784,0.461-7.107C364.116,16.717,362.79,14.603,360.959,12.975z"/>
			</g>
			<g>
				<path d="M358.892,16.089c0.963,0.786,1.584,1.973,1.829,3.206c0.235,1.234,0.103,2.568-0.498,3.657
					c0.223-1.213,0.238-2.402,0.008-3.562C360.011,18.228,359.553,17.129,358.892,16.089z"/>
			</g>
			<g>
				<path d="M355.563,16.581c-0.825,1.591-1.406,3.258-1.677,4.99c-0.285,1.73-0.256,3.494,0.028,5.264
					c-0.667-1.671-0.803-3.552-0.521-5.343C353.688,19.702,354.407,17.96,355.563,16.581z"/>
			</g>
		</g>
		<g>
			<path d="M345.169,24.905c0.56,2.714,1.755,5.251,3.517,7.336c1.723,2.118,3.994,3.761,6.557,4.816
				c-2.713-0.662-5.135-2.354-6.941-4.497C346.531,30.387,345.318,27.694,345.169,24.905z"/>
		</g>
		<g>
			<path d="M359.841,36.93c1.767-1.412,3.337-3.013,4.632-4.829c1.307-1.807,2.323-3.805,3.099-5.931
				c-0.396,2.233-1.368,4.365-2.693,6.222C363.541,34.24,361.83,35.841,359.841,36.93z"/>
		</g>
		<g>
			<path d="M361.437,28.198c-0.045,1.708-0.555,3.401-1.355,4.921c-0.814,1.514-1.933,2.883-3.325,3.873
				c1.124-1.279,2.107-2.631,2.884-4.108C360.432,31.415,361.005,29.845,361.437,28.198z"/>
		</g>
		<g>
			<path d="M351.446,134.021c-0.609,2.138-1.393,4.23-2.344,6.246c-0.945,2.02-2.066,3.955-3.291,5.82
				c-1.258,1.842-2.624,3.614-4.132,5.256c-1.504,1.646-3.141,3.166-4.888,4.541c1.625-1.515,3.158-3.119,4.6-4.796
				c1.437-1.681,2.791-3.433,4.005-5.279c1.248-1.824,2.352-3.743,3.362-5.71C349.761,138.128,350.663,136.101,351.446,134.021z"/>
		</g>
		<g>
			<path d="M358.52,136.643c1.122,2.834,2.564,5.517,4.429,7.895c1.821,2.412,4.046,4.492,6.497,6.304
				c-2.686-1.466-5-3.584-6.893-5.999C360.704,142.394,359.25,139.614,358.52,136.643z"/>
		</g>
		<g>
			<path d="M316.859,140.261c1.087,1.451,2.198,2.85,3.426,4.15c1.216,1.312,2.537,2.513,3.912,3.695
				c-1.6-0.861-3.027-2.031-4.277-3.354C318.684,143.416,317.612,141.914,316.859,140.261z"/>
		</g>
		<g>
			<path d="M391.671,145.261c0.633-1.635,1.298-3.232,1.902-4.858c0.621-1.619,1.178-3.258,1.785-4.902
				c-0.227,1.74-0.707,3.437-1.318,5.079C393.411,142.214,392.65,143.805,391.671,145.261z"/>
		</g>
		<g>
			<path d="M355.231,175.41c0.092,3.947,0.158,7.895,0.191,11.842l0.058,11.842l-0.057,11.842c-0.034,3.947-0.1,7.895-0.192,11.842
				c-0.092-3.947-0.159-7.895-0.192-11.842l-0.057-11.842l0.058-11.842C355.073,183.305,355.139,179.358,355.231,175.41z"/>
		</g>
		<g>
			<g>
				<path d="M301.537,141.505c1.059-1.535,2.309-2.925,3.643-4.221c1.347-1.283,2.785-2.479,4.359-3.477l-4.013,3.837
					L301.537,141.505z"/>
			</g>
			<g>
				<g>
					<path d="M296.725,161.299c0.279-1.497,0.758-2.941,1.326-4.346c0.585-1.398,1.261-2.762,2.124-4.017
						c-0.514,1.432-1.098,2.813-1.662,4.207C297.931,158.529,297.373,159.923,296.725,161.299z"/>
				</g>
				<g>
					<path d="M299.269,149.01c1.107,2.869,2.158,5.743,3.361,8.559c1.149,2.839,2.447,5.61,3.719,8.409
						c-1.64-2.605-2.972-5.389-4.18-8.217C301.016,154.91,299.982,152.004,299.269,149.01z"/>
				</g>
			</g>
			<g>
				<path d="M296.717,183.995c-0.259,1.419,0.101,2.812,0.841,3.956c0.735,1.15,1.848,2.049,3.22,2.483
					c-1.459-0.038-2.845-0.967-3.64-2.213C296.335,186.986,296.065,185.31,296.717,183.995z"/>
			</g>
			<g>
				<path d="M295.43,189.381c0.565,0.418,1.011,0.927,1.43,1.458c0.403,0.542,0.778,1.106,1.033,1.761
					c-0.566-0.417-1.012-0.927-1.43-1.458C296.06,190.599,295.686,190.035,295.43,189.381z"/>
			</g>
			<g>
				<path d="M294.289,246.595c-1.126-0.599-1.91-1.795-2.176-3.064c-0.266-1.267-0.025-2.686,0.791-3.67
					c-0.46,1.174-0.55,2.399-0.302,3.568C292.842,244.602,293.415,245.687,294.289,246.595z"/>
			</g>
			<g>
				<path d="M292.557,237.887c-0.129-3.605-0.065-7.206-0.016-10.808c0.107-3.6,0.197-7.201,0.483-10.797
					c0.13,3.605,0.065,7.207,0.016,10.808C292.933,230.69,292.842,234.29,292.557,237.887z"/>
			</g>
		</g>
		<g>
			<g>
				<path d="M408.512,141.505l-3.99-3.861l-4.013-3.837c1.575,0.998,3.012,2.194,4.359,3.477
					C406.203,138.58,407.454,139.97,408.512,141.505z"/>
			</g>
			<g>
				<g>
					<path d="M413.325,161.299c-0.649-1.376-1.206-2.769-1.788-4.156c-0.564-1.394-1.149-2.775-1.662-4.207
						c0.863,1.255,1.539,2.619,2.124,4.017C412.567,158.358,413.046,159.802,413.325,161.299z"/>
				</g>
				<g>
					<path d="M410.78,149.01c-0.713,2.994-1.746,5.9-2.9,8.751c-1.208,2.829-2.54,5.613-4.18,8.217
						c1.272-2.799,2.569-5.57,3.719-8.409C408.622,154.753,409.673,151.879,410.78,149.01z"/>
				</g>
			</g>
			<g>
				<path d="M413.332,183.995c0.652,1.315,0.382,2.991-0.421,4.226c-0.795,1.246-2.181,2.175-3.64,2.213
					c1.372-0.435,2.485-1.333,3.22-2.483C413.231,186.807,413.591,185.415,413.332,183.995z"/>
			</g>
			<g>
				<path d="M414.619,189.381c-0.256,0.655-0.63,1.219-1.033,1.761c-0.418,0.531-0.864,1.04-1.43,1.458
					c0.255-0.656,0.629-1.219,1.033-1.761C413.608,190.308,414.054,189.799,414.619,189.381z"/>
			</g>
			<g>
				<path d="M415.76,246.595c0.874-0.908,1.447-1.994,1.686-3.166c0.248-1.169,0.159-2.394-0.302-3.568
					c0.816,0.984,1.057,2.403,0.791,3.67C417.67,244.801,416.886,245.997,415.76,246.595z"/>
			</g>
			<g>
				<path d="M417.492,237.887c-0.284-3.596-0.376-7.197-0.483-10.797c-0.049-3.602-0.114-7.203,0.016-10.808
					c0.286,3.596,0.376,7.197,0.483,10.797C417.556,230.68,417.621,234.281,417.492,237.887z"/>
			</g>
		</g>
		<g>
			<g>
				<path d="M347.799,467.363c-0.329-1.999-0.425-4.028-0.398-6.05c0.045-2.022,0.212-4.046,0.613-6.032L347.799,467.363z"/>
			</g>
			<g>
				<path d="M338.994,464.516c0.24,0.55,0.408,1.13,0.482,1.738c0.08,0.606,0.026,1.251-0.207,1.847
					c-0.251,0.605-0.718,1.103-1.296,1.376c-0.565,0.282-1.295,0.322-1.797-0.041c0.583,0.16,1.156,0.003,1.61-0.295
					c0.452-0.305,0.826-0.733,1.02-1.226C339.225,466.891,339.084,465.703,338.994,464.516z"/>
			</g>
			<g>
				<path d="M333.494,411.034c1.009,2.64,2.088,5.235,3.421,7.708c1.282,2.499,2.809,4.858,4.411,7.187
					c-1.931-2.073-3.508-4.459-4.853-6.955C335.18,416.451,334.109,413.799,333.494,411.034z"/>
			</g>
			<g>
				<path d="M345.152,419.526c0.293-1.583,0.729-3.122,1.198-4.65c0.487-1.522,1.009-3.034,1.675-4.5
					c-0.292,1.584-0.728,3.122-1.198,4.65C346.339,416.548,345.817,418.06,345.152,419.526z"/>
			</g>
			<g>
				<path d="M347.446,413.874c0.541,0.537,0.953,1.149,1.334,1.779c0.365,0.64,0.699,1.298,0.903,2.032
					c-0.542-0.536-0.954-1.148-1.334-1.779C347.985,415.266,347.651,414.608,347.446,413.874z"/>
			</g>
			<g>
				<path d="M334.964,360.464c-0.298-1.36-0.564-2.724-0.81-4.092c-0.263-1.365-0.476-2.738-0.705-4.109l-0.029-0.174l0.165-0.078
					c1.716-0.813,3.589-1.24,5.462-1.437c1.88-0.155,3.782-0.041,5.6,0.404c-1.856-0.212-3.723-0.231-5.555,0.016
					c-1.837,0.207-3.624,0.722-5.313,1.447l0.136-0.252c0.198,1.375,0.413,2.748,0.576,4.129
					C334.673,357.698,334.834,359.078,334.964,360.464z"/>
			</g>
			<g>
				<path d="M325.498,332.191c-1.028-2.967-1.874-6.002-2.527-9.079c-0.66-3.076-1.114-6.196-1.429-9.327
					c-0.274-3.135-0.406-6.284-0.331-9.43c0.069-3.145,0.337-6.284,0.796-9.391c-0.275,3.128-0.409,6.263-0.411,9.395
					c0.004,3.132,0.132,6.264,0.443,9.379c0.272,3.119,0.73,6.22,1.307,9.298C323.931,326.113,324.645,329.169,325.498,332.191z"/>
			</g>
			<g>
				<path d="M343.364,353.999c0.304,0.931,0.459,1.88,0.579,2.832c0.102,0.955,0.167,1.914,0.083,2.89
					c-0.305-0.931-0.46-1.88-0.579-2.832C343.346,355.934,343.281,354.975,343.364,353.999z"/>
			</g>
			<g>
				<path d="M338.124,360.924c1.028-0.349,2.108-0.486,3.184-0.518c1.077-0.014,2.161,0.077,3.203,0.385
					c-1.081,0.083-2.134,0.084-3.192,0.115C340.26,360.918,339.208,360.96,338.124,360.924z"/>
			</g>
		</g>
		<g>
			<g>
				<path d="M364.161,467.363l-0.215-12.082c0.401,1.986,0.569,4.01,0.613,6.032C364.586,463.335,364.491,465.363,364.161,467.363z"
					/>
			</g>
			<g>
				<path d="M372.966,464.516c-0.09,1.187-0.231,2.375,0.189,3.399c0.193,0.494,0.568,0.921,1.02,1.226
					c0.454,0.299,1.027,0.456,1.61,0.295c-0.502,0.363-1.233,0.323-1.797,0.041c-0.579-0.273-1.046-0.771-1.296-1.376
					c-0.234-0.596-0.287-1.241-0.207-1.847C372.559,465.646,372.726,465.066,372.966,464.516z"/>
			</g>
			<g>
				<path d="M378.466,411.034c-0.615,2.765-1.685,5.417-2.979,7.94c-1.345,2.496-2.922,4.882-4.853,6.955
					c1.602-2.329,3.129-4.688,4.411-7.187C376.378,416.268,377.457,413.674,378.466,411.034z"/>
			</g>
			<g>
				<path d="M366.808,419.526c-0.664-1.467-1.186-2.978-1.675-4.5c-0.47-1.528-0.906-3.066-1.198-4.65
					c0.666,1.466,1.188,2.978,1.675,4.5C366.079,416.405,366.515,417.943,366.808,419.526z"/>
			</g>
			<g>
				<path d="M364.514,413.874c-0.205,0.734-0.539,1.392-0.903,2.032c-0.381,0.631-0.792,1.243-1.334,1.779
					c0.204-0.734,0.538-1.392,0.904-2.032C363.561,415.023,363.973,414.411,364.514,413.874z"/>
			</g>
			<g>
				<path d="M376.997,360.464c0.13-1.386,0.291-2.767,0.471-4.145c0.164-1.381,0.378-2.753,0.576-4.129l0.136,0.252
					c-1.688-0.725-3.475-1.24-5.313-1.447c-1.832-0.247-3.699-0.229-5.555-0.016c1.819-0.446,3.72-0.56,5.6-0.404
					c1.873,0.197,3.746,0.624,5.462,1.437l0.165,0.078l-0.029,0.174c-0.229,1.37-0.442,2.743-0.705,4.109
					C377.56,357.74,377.294,359.105,376.997,360.464z"/>
			</g>
			<g>
				<path d="M386.462,332.191c0.853-3.022,1.567-6.078,2.151-9.155c0.577-3.078,1.035-6.179,1.307-9.298
					c0.312-3.115,0.439-6.247,0.443-9.379c-0.002-3.132-0.136-6.267-0.411-9.395c0.459,3.107,0.727,6.245,0.796,9.391
					c0.076,3.145-0.056,6.295-0.331,9.43c-0.315,3.131-0.768,6.251-1.429,9.327C388.336,326.189,387.49,329.224,386.462,332.191z"/>
			</g>
			<g>
				<path d="M368.596,353.999c0.083,0.976,0.018,1.935-0.083,2.89c-0.119,0.953-0.274,1.901-0.579,2.832
					c-0.084-0.976-0.019-1.935,0.083-2.89C368.137,355.879,368.293,354.93,368.596,353.999z"/>
			</g>
			<g>
				<path d="M373.836,360.924c-1.084,0.036-2.136-0.006-3.194-0.018c-1.058-0.031-2.111-0.032-3.192-0.115
					c1.042-0.308,2.126-0.399,3.203-0.385C371.728,360.438,372.808,360.574,373.836,360.924z"/>
			</g>
		</g>
		<g>
			<path d="M313.014,238.82c1.611,3.046,3.503,5.923,5.785,8.475c2.241,2.589,4.853,4.832,7.667,6.819
				c-3.043-1.638-5.734-3.907-8.042-6.489C316.158,245.006,314.252,242.047,313.014,238.82z"/>
		</g>
		<g>
			<path d="M381.129,256.044c3.047-1.977,5.936-4.166,8.519-6.691c2.623-2.484,4.921-5.288,7.015-8.255
				c-1.744,3.195-4.061,6.066-6.669,8.615C387.347,252.22,384.387,254.423,381.129,256.044z"/>
		</g>
		<g>
			<path d="M346.38,68.947c3.047,0.98,6.206,1.536,9.379,1.499c3.174,0.018,6.328-0.557,9.371-1.553
				c-2.898,1.389-6.145,2.016-9.369,2.052C352.537,70.928,349.287,70.318,346.38,68.947z"/>
		</g>
		<g>
			<path d="M353.099,72.014c0.838-0.177,1.648-0.273,2.461-0.401c0.816-0.11,1.62-0.247,2.474-0.315
				c-0.737,0.441-1.565,0.679-2.402,0.809C354.793,72.22,353.931,72.227,353.099,72.014z"/>
		</g>
		<g>
			<path d="M337.79,67.556c-0.127-0.458-0.105-0.892-0.049-1.322c0.075-0.427,0.185-0.848,0.444-1.246
				c0.128,0.458,0.107,0.893,0.049,1.322C338.159,66.737,338.049,67.158,337.79,67.556z"/>
		</g>
		<g>
			<path d="M337.037,64.887l-0.78-3.84c-0.257-1.275-0.563-2.533-0.819-3.832c0.626,1.169,1.031,2.439,1.308,3.73
				C337.007,62.24,337.143,63.566,337.037,64.887z"/>
		</g>
		<g>
			<path d="M374.432,67.26c-0.255-0.235-0.365-0.505-0.441-0.782c-0.057-0.282-0.079-0.572,0.046-0.897
				c0.257,0.235,0.366,0.504,0.441,0.782C374.534,66.645,374.556,66.936,374.432,67.26z"/>
		</g>
		<g>
			<path d="M376.096,64.692c-0.216-1.251-0.112-2.546,0.187-3.781c0.315-1.231,0.832-2.424,1.611-3.426
				c-0.433,1.189-0.835,2.349-1.126,3.547C376.461,62.226,376.271,63.439,376.096,64.692z"/>
		</g>
		<g>
			<path d="M322.13,263.131c3.894,0.865,7.818,1.528,11.782,1.793c3.96,0.322,7.939,0.242,11.918-0.038
				c-3.934,0.695-7.964,0.803-11.954,0.536C329.889,265.098,325.919,264.396,322.13,263.131z"/>
		</g>
		<g>
			<path d="M366.181,264.376c3.934,0.634,7.902,0.96,11.864,0.787c3.965-0.116,7.898-0.729,11.776-1.646
				c-3.769,1.319-7.762,1.972-11.758,2.145C374.065,265.779,370.035,265.416,366.181,264.376z"/>
		</g>
	</g>
</g>
</svg>
