<svg xmlns="http://www.w3.org/2000/svg" width="489" height="249" viewBox="0 0 489 249"><path fill="#453f38" fill-rule="evenodd" d="M 322.0 213.0 L 327.0 223.0 L 326.0 225.0 L 319.0 225.0 L 318.0 224.0 Z M 285.0 212.0 L 286.0 211.0 L 293.0 211.0 L 295.0 212.0 L 298.0 216.0 L 297.0 220.0 L 294.0 222.0 L 287.0 222.0 L 286.0 223.0 L 285.0 222.0 Z M 198.0 212.0 L 199.0 211.0 L 207.0 211.0 L 209.0 212.0 L 211.0 215.0 L 211.0 219.0 L 207.0 222.0 L 199.0 222.0 L 198.0 221.0 Z M 53.0 211.0 L 61.0 211.0 L 67.0 217.0 L 68.0 220.0 L 68.0 224.0 L 66.0 230.0 L 63.0 233.0 L 58.0 235.0 L 53.0 234.0 L 50.0 232.0 L 47.0 227.0 L 47.0 218.0 Z M 384.0 207.0 L 383.0 208.0 L 384.0 209.0 L 383.0 211.0 L 393.0 211.0 L 394.0 212.0 L 394.0 238.0 L 395.0 239.0 L 396.0 238.0 L 399.0 238.0 L 399.0 212.0 L 400.0 211.0 L 410.0 211.0 L 410.0 208.0 L 409.0 207.0 Z M 347.0 207.0 L 347.0 238.0 L 351.0 238.0 L 351.0 217.0 L 353.0 216.0 L 366.0 236.0 L 368.0 238.0 L 371.0 238.0 L 372.0 239.0 L 373.0 238.0 L 373.0 207.0 L 368.0 207.0 L 368.0 227.0 L 367.0 228.0 L 354.0 209.0 L 352.0 207.0 Z M 320.0 207.0 L 313.0 223.0 L 313.0 225.0 L 311.0 228.0 L 311.0 230.0 L 309.0 233.0 L 309.0 235.0 L 307.0 238.0 L 313.0 238.0 L 316.0 229.0 L 328.0 229.0 L 331.0 233.0 L 332.0 238.0 L 338.0 238.0 L 336.0 235.0 L 336.0 233.0 L 331.0 223.0 L 331.0 221.0 L 329.0 218.0 L 329.0 216.0 L 325.0 207.0 Z M 295.0 207.0 L 280.0 207.0 L 280.0 238.0 L 285.0 238.0 L 285.0 228.0 L 286.0 227.0 L 297.0 226.0 L 300.0 224.0 L 302.0 221.0 L 302.0 218.0 L 303.0 217.0 L 302.0 212.0 L 299.0 209.0 Z M 227.0 207.0 L 227.0 238.0 L 249.0 238.0 L 249.0 234.0 L 233.0 234.0 L 232.0 233.0 L 232.0 225.0 L 233.0 224.0 L 243.0 224.0 L 244.0 225.0 L 245.0 224.0 L 245.0 221.0 L 244.0 220.0 L 233.0 220.0 L 232.0 219.0 L 232.0 212.0 L 233.0 211.0 L 249.0 211.0 L 249.0 208.0 L 248.0 207.0 Z M 193.0 207.0 L 193.0 238.0 L 194.0 239.0 L 197.0 239.0 L 198.0 238.0 L 198.0 227.0 L 199.0 226.0 L 203.0 226.0 L 211.0 238.0 L 216.0 238.0 L 217.0 239.0 L 217.0 237.0 L 209.0 227.0 L 210.0 225.0 L 214.0 223.0 L 216.0 219.0 L 216.0 213.0 L 214.0 210.0 L 208.0 207.0 Z M 156.0 207.0 L 155.0 208.0 L 155.0 228.0 L 157.0 234.0 L 161.0 238.0 L 164.0 239.0 L 171.0 239.0 L 175.0 237.0 L 179.0 232.0 L 179.0 225.0 L 180.0 224.0 L 180.0 208.0 L 179.0 207.0 L 175.0 207.0 L 175.0 229.0 L 171.0 234.0 L 167.0 235.0 L 164.0 234.0 L 160.0 230.0 L 160.0 207.0 Z M 120.0 207.0 L 120.0 211.0 L 130.0 211.0 L 131.0 212.0 L 131.0 238.0 L 135.0 238.0 L 135.0 212.0 L 136.0 211.0 L 146.0 211.0 L 147.0 210.0 L 146.0 207.0 Z M 85.0 207.0 L 85.0 228.0 L 86.0 229.0 L 86.0 232.0 L 91.0 238.0 L 94.0 239.0 L 102.0 239.0 L 104.0 238.0 L 108.0 234.0 L 110.0 229.0 L 110.0 207.0 L 106.0 207.0 L 105.0 208.0 L 105.0 230.0 L 102.0 234.0 L 99.0 235.0 L 94.0 234.0 L 91.0 231.0 L 90.0 228.0 L 90.0 207.0 Z M 431.0 206.0 L 429.0 207.0 L 424.0 207.0 L 421.0 209.0 L 418.0 215.0 L 418.0 217.0 L 421.0 222.0 L 433.0 226.0 L 436.0 229.0 L 436.0 231.0 L 431.0 235.0 L 430.0 234.0 L 425.0 234.0 L 420.0 230.0 L 417.0 233.0 L 418.0 235.0 L 425.0 239.0 L 433.0 239.0 L 437.0 237.0 L 441.0 231.0 L 440.0 226.0 L 436.0 222.0 L 432.0 220.0 L 426.0 219.0 L 423.0 216.0 L 423.0 214.0 L 427.0 211.0 L 433.0 211.0 L 436.0 214.0 L 440.0 212.0 L 437.0 208.0 Z M 63.0 207.0 L 58.0 207.0 L 57.0 206.0 L 48.0 209.0 L 45.0 212.0 L 42.0 218.0 L 42.0 227.0 L 44.0 232.0 L 49.0 237.0 L 53.0 239.0 L 61.0 239.0 L 64.0 238.0 L 69.0 234.0 L 72.0 228.0 L 72.0 225.0 L 73.0 224.0 L 72.0 216.0 L 69.0 211.0 Z M 22.0 206.0 L 13.0 208.0 L 8.0 213.0 L 6.0 217.0 L 6.0 228.0 L 7.0 231.0 L 10.0 235.0 L 18.0 239.0 L 24.0 239.0 L 29.0 237.0 L 34.0 231.0 L 29.0 230.0 L 29.0 231.0 L 25.0 234.0 L 17.0 234.0 L 14.0 232.0 L 11.0 228.0 L 10.0 221.0 L 12.0 216.0 L 16.0 212.0 L 18.0 211.0 L 24.0 211.0 L 29.0 216.0 L 33.0 215.0 L 33.0 213.0 L 28.0 208.0 Z M 360.0 115.0 L 361.0 116.0 L 361.0 124.0 L 362.0 125.0 L 362.0 138.0 L 360.0 143.0 L 353.0 150.0 L 351.0 150.0 L 348.0 152.0 L 342.0 152.0 L 339.0 151.0 L 333.0 145.0 L 331.0 139.0 L 331.0 135.0 L 334.0 127.0 L 340.0 121.0 L 346.0 118.0 L 352.0 116.0 Z M 150.0 75.0 L 157.0 75.0 L 163.0 77.0 L 173.0 85.0 L 180.0 97.0 L 182.0 103.0 L 182.0 108.0 L 183.0 109.0 L 183.0 131.0 L 182.0 132.0 L 182.0 135.0 L 180.0 141.0 L 173.0 151.0 L 169.0 154.0 L 163.0 155.0 L 162.0 156.0 L 155.0 156.0 L 149.0 154.0 L 147.0 152.0 L 144.0 151.0 L 138.0 145.0 L 132.0 133.0 L 131.0 126.0 L 130.0 125.0 L 130.0 120.0 L 129.0 119.0 L 129.0 107.0 L 130.0 106.0 L 130.0 99.0 L 131.0 98.0 L 132.0 92.0 L 135.0 86.0 L 141.0 79.0 L 146.0 76.0 L 149.0 76.0 Z M 295.0 70.0 L 291.0 70.0 L 275.0 76.0 L 272.0 76.0 L 270.0 80.0 L 277.0 82.0 L 279.0 86.0 L 279.0 149.0 L 278.0 152.0 L 276.0 154.0 L 269.0 156.0 L 269.0 160.0 L 270.0 161.0 L 271.0 160.0 L 305.0 160.0 L 305.0 156.0 L 304.0 155.0 L 300.0 155.0 L 298.0 154.0 L 295.0 150.0 Z M 434.0 69.0 L 432.0 71.0 L 431.0 77.0 L 430.0 78.0 L 429.0 99.0 L 428.0 100.0 L 428.0 113.0 L 427.0 114.0 L 428.0 118.0 L 427.0 119.0 L 427.0 130.0 L 426.0 131.0 L 427.0 132.0 L 427.0 135.0 L 426.0 136.0 L 426.0 154.0 L 425.0 155.0 L 426.0 156.0 L 425.0 157.0 L 425.0 187.0 L 424.0 188.0 L 425.0 189.0 L 424.0 191.0 L 425.0 192.0 L 425.0 195.0 L 426.0 196.0 L 429.0 196.0 L 429.0 185.0 L 430.0 184.0 L 429.0 177.0 L 430.0 176.0 L 431.0 123.0 L 432.0 122.0 L 433.0 95.0 L 434.0 94.0 L 434.0 87.0 L 435.0 86.0 L 436.0 87.0 L 437.0 113.0 L 438.0 114.0 L 437.0 115.0 L 438.0 116.0 L 438.0 136.0 L 439.0 137.0 L 440.0 195.0 L 441.0 196.0 L 444.0 196.0 L 444.0 193.0 L 445.0 192.0 L 445.0 188.0 L 444.0 187.0 L 444.0 149.0 L 443.0 148.0 L 442.0 105.0 L 441.0 104.0 L 441.0 93.0 L 440.0 92.0 L 441.0 91.0 L 440.0 90.0 L 440.0 82.0 L 439.0 81.0 L 438.0 71.0 L 436.0 69.0 Z M 330.0 73.0 L 324.0 77.0 L 317.0 86.0 L 317.0 95.0 L 322.0 99.0 L 326.0 99.0 L 328.0 98.0 L 331.0 95.0 L 332.0 92.0 L 332.0 86.0 L 335.0 79.0 L 341.0 75.0 L 349.0 75.0 L 353.0 77.0 L 357.0 81.0 L 360.0 87.0 L 360.0 90.0 L 361.0 91.0 L 361.0 109.0 L 360.0 110.0 L 359.0 109.0 L 358.0 110.0 L 349.0 111.0 L 348.0 112.0 L 345.0 112.0 L 339.0 114.0 L 324.0 122.0 L 319.0 127.0 L 315.0 134.0 L 315.0 137.0 L 314.0 138.0 L 314.0 146.0 L 316.0 152.0 L 321.0 158.0 L 329.0 162.0 L 340.0 162.0 L 341.0 161.0 L 344.0 161.0 L 352.0 157.0 L 357.0 153.0 L 360.0 149.0 L 362.0 152.0 L 363.0 156.0 L 369.0 161.0 L 375.0 162.0 L 385.0 158.0 L 387.0 156.0 L 387.0 154.0 L 386.0 153.0 L 383.0 154.0 L 379.0 152.0 L 377.0 148.0 L 377.0 143.0 L 376.0 142.0 L 376.0 108.0 L 377.0 107.0 L 376.0 104.0 L 377.0 103.0 L 377.0 97.0 L 376.0 96.0 L 376.0 89.0 L 373.0 81.0 L 367.0 74.0 L 362.0 71.0 L 356.0 70.0 L 355.0 69.0 L 342.0 69.0 Z M 152.0 68.0 L 151.0 69.0 L 142.0 70.0 L 137.0 73.0 L 135.0 73.0 L 133.0 75.0 L 130.0 76.0 L 120.0 86.0 L 114.0 97.0 L 113.0 103.0 L 112.0 104.0 L 112.0 109.0 L 111.0 110.0 L 111.0 123.0 L 113.0 128.0 L 113.0 132.0 L 117.0 141.0 L 121.0 147.0 L 131.0 156.0 L 145.0 162.0 L 149.0 162.0 L 150.0 163.0 L 161.0 163.0 L 162.0 162.0 L 171.0 161.0 L 180.0 157.0 L 193.0 145.0 L 198.0 136.0 L 200.0 126.0 L 201.0 125.0 L 201.0 108.0 L 195.0 90.0 L 185.0 78.0 L 179.0 74.0 L 170.0 70.0 L 166.0 70.0 L 165.0 69.0 L 153.0 69.0 Z M 310.0 40.0 L 307.0 38.0 L 302.0 38.0 L 300.0 39.0 L 293.0 46.0 L 292.0 49.0 L 288.0 54.0 L 287.0 58.0 L 291.0 60.0 L 308.0 51.0 L 311.0 46.0 L 311.0 42.0 Z M 269.0 25.0 L 263.0 25.0 L 262.0 24.0 L 259.0 25.0 L 253.0 25.0 L 252.0 26.0 L 249.0 26.0 L 238.0 32.0 L 233.0 36.0 L 225.0 49.0 L 224.0 52.0 L 224.0 59.0 L 223.0 60.0 L 223.0 69.0 L 222.0 70.0 L 217.0 70.0 L 211.0 72.0 L 211.0 76.0 L 214.0 77.0 L 222.0 77.0 L 223.0 78.0 L 223.0 150.0 L 221.0 153.0 L 212.0 156.0 L 212.0 160.0 L 213.0 161.0 L 215.0 160.0 L 246.0 160.0 L 247.0 161.0 L 248.0 160.0 L 252.0 160.0 L 252.0 157.0 L 251.0 156.0 L 244.0 154.0 L 240.0 149.0 L 240.0 78.0 L 241.0 77.0 L 260.0 77.0 L 263.0 76.0 L 263.0 71.0 L 262.0 70.0 L 258.0 70.0 L 257.0 71.0 L 256.0 70.0 L 255.0 71.0 L 254.0 70.0 L 241.0 71.0 L 240.0 70.0 L 240.0 49.0 L 245.0 36.0 L 248.0 33.0 L 252.0 31.0 L 260.0 31.0 L 262.0 32.0 L 265.0 35.0 L 267.0 42.0 L 271.0 47.0 L 273.0 48.0 L 279.0 48.0 L 283.0 44.0 L 283.0 36.0 L 279.0 30.0 Z M 66.0 24.0 L 50.0 24.0 L 49.0 25.0 L 41.0 26.0 L 38.0 28.0 L 34.0 29.0 L 28.0 33.0 L 23.0 38.0 L 18.0 47.0 L 16.0 53.0 L 16.0 66.0 L 17.0 67.0 L 17.0 70.0 L 21.0 79.0 L 25.0 84.0 L 37.0 93.0 L 49.0 99.0 L 51.0 99.0 L 70.0 109.0 L 78.0 117.0 L 82.0 127.0 L 82.0 136.0 L 81.0 137.0 L 81.0 140.0 L 77.0 147.0 L 74.0 150.0 L 65.0 155.0 L 62.0 155.0 L 61.0 156.0 L 50.0 156.0 L 49.0 155.0 L 46.0 155.0 L 36.0 150.0 L 25.0 138.0 L 22.0 132.0 L 20.0 124.0 L 19.0 123.0 L 15.0 124.0 L 15.0 152.0 L 26.0 158.0 L 32.0 160.0 L 35.0 160.0 L 36.0 161.0 L 40.0 161.0 L 41.0 162.0 L 54.0 162.0 L 57.0 163.0 L 58.0 162.0 L 66.0 162.0 L 67.0 161.0 L 70.0 161.0 L 76.0 159.0 L 82.0 156.0 L 91.0 148.0 L 96.0 140.0 L 97.0 134.0 L 98.0 133.0 L 99.0 120.0 L 98.0 119.0 L 97.0 111.0 L 93.0 104.0 L 84.0 95.0 L 80.0 93.0 L 77.0 90.0 L 45.0 75.0 L 37.0 68.0 L 33.0 61.0 L 32.0 50.0 L 35.0 42.0 L 41.0 35.0 L 46.0 32.0 L 52.0 31.0 L 53.0 30.0 L 64.0 31.0 L 69.0 33.0 L 73.0 36.0 L 80.0 44.0 L 84.0 52.0 L 86.0 59.0 L 90.0 59.0 L 90.0 33.0 L 89.0 30.0 L 85.0 28.0 L 82.0 28.0 L 77.0 26.0 L 73.0 26.0 L 72.0 25.0 L 67.0 25.0 Z M 406.0 15.0 L 407.0 12.0 L 409.0 10.0 L 445.0 10.0 L 446.0 11.0 L 448.0 10.0 L 450.0 11.0 L 451.0 10.0 L 452.0 11.0 L 459.0 11.0 L 461.0 14.0 L 461.0 18.0 L 460.0 19.0 L 407.0 19.0 L 406.0 18.0 Z M 404.0 6.0 L 402.0 12.0 L 401.0 23.0 L 399.0 26.0 L 397.0 32.0 L 397.0 36.0 L 395.0 40.0 L 394.0 50.0 L 393.0 51.0 L 393.0 58.0 L 392.0 59.0 L 393.0 60.0 L 392.0 61.0 L 392.0 88.0 L 393.0 89.0 L 393.0 101.0 L 394.0 102.0 L 394.0 194.0 L 395.0 196.0 L 398.0 196.0 L 399.0 195.0 L 399.0 104.0 L 398.0 103.0 L 398.0 91.0 L 397.0 90.0 L 397.0 56.0 L 398.0 55.0 L 398.0 49.0 L 399.0 48.0 L 400.0 40.0 L 401.0 39.0 L 403.0 29.0 L 407.0 23.0 L 430.0 23.0 L 431.0 24.0 L 431.0 58.0 L 434.0 59.0 L 436.0 57.0 L 436.0 24.0 L 437.0 23.0 L 461.0 23.0 L 464.0 27.0 L 467.0 36.0 L 467.0 39.0 L 469.0 43.0 L 469.0 47.0 L 471.0 52.0 L 471.0 58.0 L 472.0 59.0 L 472.0 66.0 L 473.0 67.0 L 473.0 130.0 L 472.0 131.0 L 473.0 132.0 L 473.0 139.0 L 472.0 140.0 L 473.0 141.0 L 473.0 181.0 L 474.0 182.0 L 474.0 196.0 L 475.0 197.0 L 475.0 214.0 L 476.0 215.0 L 477.0 237.0 L 476.0 238.0 L 474.0 237.0 L 455.0 237.0 L 452.0 238.0 L 450.0 240.0 L 451.0 242.0 L 480.0 242.0 L 482.0 240.0 L 482.0 234.0 L 481.0 233.0 L 481.0 220.0 L 480.0 219.0 L 479.0 185.0 L 478.0 184.0 L 478.0 157.0 L 477.0 156.0 L 478.0 155.0 L 477.0 153.0 L 478.0 71.0 L 477.0 70.0 L 476.0 54.0 L 475.0 53.0 L 475.0 49.0 L 473.0 44.0 L 473.0 40.0 L 471.0 36.0 L 471.0 33.0 L 469.0 27.0 L 466.0 21.0 L 465.0 8.0 L 464.0 6.0 Z"/></svg>